<svg xmlns="http://www.w3.org/2000/svg" width="375" height="711" viewBox="0 0 375 711"><defs><style>.a,.d{fill:#03175b;}.b,.e,.g{fill:#fff;}.c{fill:#0076b4;}.d{font-size:20px;}.d,.e,.g{font-family:Teko-Medium, Teko;font-weight:500;letter-spacing:0.008em;}.e{font-size:16px;}.f{fill:none;}.g{font-size:26px;}.h{fill:#f6f6f6;font-size:12px;font-family:'Exo 2';opacity:0.703;}</style></defs><g transform="translate(0 -941)"><rect class="a" width="375" height="711" transform="translate(0 941)"/><g transform="translate(-1110 -404)"><rect class="b" width="145" height="26" transform="translate(1225 1520)"/><rect class="c" width="115" height="22" transform="translate(1240 1542)"/><text class="d" transform="translate(1297 1539)"><tspan x="-28.72" y="0">20% OFF</tspan></text><text class="e" transform="translate(1298 1558)"><tspan x="-50.888" y="0">FIRST-TIME BUYERS</tspan></text><g transform="translate(1282 1482)"><path class="f" d="M0,0H32V32H0Z"/><path class="f" d="M0,0H32V32H0Z"/><circle class="b" cx="1.5" cy="1.5" r="1.5" transform="translate(19.333 11.048)"/><circle class="b" cx="1.5" cy="1.5" r="1.5" transform="translate(9.667 11.048)"/><circle class="b" cx="1.5" cy="1.5" r="1.5" transform="translate(19.333 11.048)"/><circle class="b" cx="1.5" cy="1.5" r="1.5" transform="translate(9.667 11.048)"/><path class="b" d="M15.986,2A14,14,0,1,0,30,16,13.993,13.993,0,0,0,15.986,2ZM16,27.2A11.2,11.2,0,1,1,27.2,16,11.2,11.2,0,0,1,16,27.2Zm0-3.5a7.693,7.693,0,0,0,7.168-4.9H20.83a5.566,5.566,0,0,1-9.66,0H8.832A7.693,7.693,0,0,0,16,23.7Z"/></g></g><g transform="translate(-1110 -304)"><rect class="b" width="145" height="26" transform="translate(1225 1520)"/><rect class="c" width="88" height="22" transform="translate(1254 1542)"/><text class="d" transform="translate(1298 1539)"><tspan x="-24.71" y="0">5% OFF</tspan></text><text class="e" transform="translate(1298 1558)"><tspan x="-28.384" y="0">10,000 LBS</tspan></text><g transform="translate(1284 1490)"><path class="f" d="M0,0H24V24H0Z" transform="translate(1)"/><path class="a" d="M20,8H17V4H3A2.006,2.006,0,0,0,1,6V17H3a3,3,0,1,0,6,0h6a3,3,0,1,0,6,0h2V12ZM6,18.5A1.5,1.5,0,1,1,7.5,17,1.5,1.5,0,0,1,6,18.5Zm13.5-9L21.46,12H17V9.5Zm-1.5,9A1.5,1.5,0,1,1,19.5,17,1.5,1.5,0,0,1,18,18.5Z" transform="translate(-1)"/></g><g transform="translate(1286 1490)"><path class="f" d="M0,0H24V24H0Z"/><path class="b" d="M20,8H17V4H3A2.006,2.006,0,0,0,1,6V17H3a3,3,0,1,0,6,0h6a3,3,0,1,0,6,0h2V12ZM6,18.5A1.5,1.5,0,1,1,7.5,17,1.5,1.5,0,0,1,6,18.5Zm13.5-9L21.46,12H17V9.5Zm-1.5,9A1.5,1.5,0,1,1,19.5,17,1.5,1.5,0,0,1,18,18.5Z"/></g></g><g transform="translate(-1110 -198)"><rect class="b" width="145" height="26" transform="translate(1225 1520)"/><rect class="c" width="88" height="22" transform="translate(1252 1542)"/><text class="d" transform="translate(1298 1539)"><tspan x="-27.63" y="0">10% OFF</tspan></text><text class="e" transform="translate(1298 1558)"><tspan x="-29.256" y="0">20,000 LBS</tspan></text><g transform="translate(1281 1484)"><path class="f" d="M0,0H30V30H0Z"/><path class="a" d="M25.182,9.5H21.364V4H3.545A2.661,2.661,0,0,0,1,6.75V21.875H3.545A3.975,3.975,0,0,0,7.364,26a3.975,3.975,0,0,0,3.818-4.125h7.636A3.975,3.975,0,0,0,22.636,26a3.975,3.975,0,0,0,3.818-4.125H29V15ZM7.364,23.938a2.069,2.069,0,0,1,0-4.125,2.069,2.069,0,0,1,0,4.125ZM24.545,11.563,27.04,15H21.364V11.563ZM22.636,23.938a2.069,2.069,0,1,1,1.909-2.062A1.988,1.988,0,0,1,22.636,23.938Z" transform="translate(-1)"/></g><g transform="translate(1283 1484)"><path class="f" d="M0,0H30V30H0Z"/><path class="b" d="M25.182,9.5H21.364V4H3.545A2.661,2.661,0,0,0,1,6.75V21.875H3.545A3.975,3.975,0,0,0,7.364,26a3.975,3.975,0,0,0,3.818-4.125h7.636A3.975,3.975,0,0,0,22.636,26a3.975,3.975,0,0,0,3.818-4.125H29V15ZM7.364,23.938a2.069,2.069,0,0,1,0-4.125,2.069,2.069,0,0,1,0,4.125ZM24.545,11.563,27.04,15H21.364V11.563ZM22.636,23.938a2.069,2.069,0,1,1,1.909-2.062A1.988,1.988,0,0,1,22.636,23.938Z"/></g></g><g transform="translate(-338 8)"><text class="g" transform="translate(527.5 982)"><tspan x="-80.327" y="0">FIRST TIME BUYER?</tspan><tspan x="-65.845" y="24">BIG PURCHASE?</tspan><tspan x="-96.395" y="48">WE’VE GOT DISCOUNTS.</tspan></text><g transform="translate(408 962)"><rect class="f" width="24" height="24"/><path class="c" d="M-6792,1577a1,1,0,0,1-1-1,1,1,0,0,1,1-1h9a1,1,0,0,1,1,1,1,1,0,0,1-1,1Zm-5-7a1,1,0,0,1-1-1,1,1,0,0,1,1-1h14a1,1,0,0,1,1,1,1,1,0,0,1-1,1Zm-4-7a1,1,0,0,1-1-1,1,1,0,0,1,1-1h18a1,1,0,0,1,1,1,1,1,0,0,1-1,1Z" transform="translate(6804 -1557)"/></g><path class="c" d="M1,16a1,1,0,1,1,0-2H19a1,1,0,0,1,0,2ZM5,9A1,1,0,0,1,5,7H19a1,1,0,0,1,0,2Zm5-7a1,1,0,0,1,0-2h9a1,1,0,0,1,0,2Z" transform="translate(644 982) rotate(180)"/></g><g transform="translate(-1110 -90)"><rect class="b" width="145" height="26" transform="translate(1225 1520)"/><rect class="c" width="88" height="22" transform="translate(1254 1542)"/><text class="d" transform="translate(1298 1539)"><tspan x="-27.39" y="0">15% OFF</tspan></text><text class="e" transform="translate(1298 1558)"><tspan x="-29.424" y="0">30,000 LBS</tspan></text><g transform="translate(1280 1482)"><path class="f" d="M0,0H32V32H0Z"/><path class="a" d="M26.909,10H22.818V4H3.727A2.882,2.882,0,0,0,1,7V23.5H3.727A4.3,4.3,0,0,0,7.818,28a4.3,4.3,0,0,0,4.091-4.5h8.182A4.3,4.3,0,0,0,24.182,28a4.3,4.3,0,0,0,4.091-4.5H31V16ZM7.818,25.75a2.26,2.26,0,0,1,0-4.5,2.26,2.26,0,0,1,0,4.5Zm18.409-13.5L28.9,16H22.818V12.25Zm-2.045,13.5a2.26,2.26,0,1,1,2.045-2.25A2.152,2.152,0,0,1,24.182,25.75Z" transform="translate(-1)"/></g><g transform="translate(1282 1482)"><path class="f" d="M0,0H32V32H0Z"/><path class="b" d="M26.909,10H22.818V4H3.727A2.882,2.882,0,0,0,1,7V23.5H3.727A4.3,4.3,0,0,0,7.818,28a4.3,4.3,0,0,0,4.091-4.5h8.182A4.3,4.3,0,0,0,24.182,28a4.3,4.3,0,0,0,4.091-4.5H31V16ZM7.818,25.75a2.26,2.26,0,0,1,0-4.5,2.26,2.26,0,0,1,0,4.5Zm18.409-13.5L28.9,16H22.818V12.25Zm-2.045,13.5a2.26,2.26,0,1,1,2.045-2.25A2.152,2.152,0,0,1,24.182,25.75Z"/></g></g><g transform="translate(-1110 24)"><rect class="b" width="235" height="26" transform="translate(1180 1520)"/><rect class="c" width="88" height="22" transform="translate(1252 1542)"/><text class="d" transform="translate(1298 1539)"><tspan x="-84.56" y="0">20% OFF + FREE SHIPPING</tspan></text><text class="e" transform="translate(1296 1558)"><tspan x="-29.544" y="0">40,000 LBS</tspan></text><g transform="translate(1276 1476)"><path class="f" d="M0,0H40V40H0Z"/><path class="a" d="M33.818,12H28.636V4H4.455A3.769,3.769,0,0,0,1,8V30H4.455c0,3.32,2.315,6,5.182,6s5.182-2.68,5.182-6H25.182c0,3.32,2.315,6,5.182,6s5.182-2.68,5.182-6H39V20ZM9.636,33a2.814,2.814,0,0,1-2.591-3,2.814,2.814,0,0,1,2.591-3,2.814,2.814,0,0,1,2.591,3A2.814,2.814,0,0,1,9.636,33ZM32.955,15l3.385,5h-7.7V15ZM30.364,33a2.814,2.814,0,0,1-2.591-3,2.814,2.814,0,0,1,2.591-3,2.814,2.814,0,0,1,2.591,3A2.814,2.814,0,0,1,30.364,33Z" transform="translate(-1)"/></g><g transform="translate(1278 1476)"><path class="f" d="M0,0H40V40H0Z"/><path class="b" d="M33.818,12H28.636V4H4.455A3.769,3.769,0,0,0,1,8V30H4.455c0,3.32,2.315,6,5.182,6s5.182-2.68,5.182-6H25.182c0,3.32,2.315,6,5.182,6s5.182-2.68,5.182-6H39V20ZM9.636,33a2.814,2.814,0,0,1-2.591-3,2.814,2.814,0,0,1,2.591-3,2.814,2.814,0,0,1,2.591,3A2.814,2.814,0,0,1,9.636,33ZM32.955,15l3.385,5h-7.7V15ZM30.364,33a2.814,2.814,0,0,1-2.591-3,2.814,2.814,0,0,1,2.591-3,2.814,2.814,0,0,1,2.591,3A2.814,2.814,0,0,1,30.364,33Z"/></g></g><text class="h" transform="translate(188 1626)"><tspan x="-82.86" y="0">Discounts applied at checkout.</tspan></text></g></svg>