<svg xmlns="http://www.w3.org/2000/svg" width="112" height="112" viewBox="0 0 112 112"><defs><style>.a{fill:#f6f6f600;}.b{fill:#033551;}.c{fill:#aaa;}.d{fill:#c7c7c7;}.e{fill:#fff;}</style></defs><rect class="a" width="112" height="112"/><g transform="translate(-3 -13)"><path class="b" d="M69.445,73.38V59.809a3.4,3.4,0,0,0-2.423-3.24L28.61,45V92.64L67.348,76.524a3.4,3.4,0,0,0,2.1-3.144Z" transform="translate(-4.347 0)"/><path class="c" d="M33,82.738H56.14V59.292L33,52.35" transform="translate(-5.75 -2.348)"/><path class="b" d="M124.429,73.38V59.809a3.4,3.4,0,0,0-2.423-3.24L80.6,45l1.633,1.089L80.6,92.64l41.733-16.116A3.4,3.4,0,0,0,124.429,73.38Z" transform="translate(-20.954 0)"/><path class="d" d="M122.432,74.832V63.943a1.361,1.361,0,0,0-1.055-1.361L85,54V89.39l36.527-13.264a1.361,1.361,0,0,0,.905-1.293Z" transform="translate(-22.36 -2.875)"/><path class="b" d="M70.4,45h5.445a3.4,3.4,0,0,1,3.4,3.4V89.238a3.4,3.4,0,0,1-3.4,3.4H67V48.4A3.4,3.4,0,0,1,70.4,45Z" transform="translate(-16.61 0)"/><path class="b" d="M0,0H8.848a3.4,3.4,0,0,1,3.4,3.4V44.238a3.4,3.4,0,0,1-3.4,3.4H0Z" transform="translate(62.64 80.39) rotate(90)"/><rect class="e" width="4.083" height="39.473" transform="translate(58.904 88.557) rotate(180)"/><path class="b" d="M0,0H8.848a3.4,3.4,0,0,1,3.4,3.4V44.238a3.4,3.4,0,0,1-3.4,3.4H3.4a3.4,3.4,0,0,1-3.4-3.4Z" transform="translate(27.25 92.64) rotate(180)"/><rect class="e" width="4.083" height="39.473" transform="translate(23.514 88.557) rotate(180)"/><rect class="e" width="4.083" height="39.473" transform="translate(58.904 84.474) rotate(90)"/></g></svg>