<svg xmlns="http://www.w3.org/2000/svg" width="112" height="112" viewBox="0 0 112 112"><defs><style>.a{fill:#f6f6f6bf;}.b{fill:#c7c7c7;}.c{fill:#aaa;}.d{fill:#fff;}.e{fill:#033551;}.f{fill:none;}</style></defs><rect class="a" width="112" height="112"/><path class="b" d="M69.4,92.747l44.859-10.068a1.4,1.4,0,0,0,1.21-.7l6.293-10.907a1.4,1.4,0,0,0,0-1.4l-6.293-10.907a1.4,1.4,0,0,0-1.21-.7L69.4,48,82.684,70.373Z" transform="translate(-20.878 -14.44)"/><path class="c" d="M115.573,91.585,69.4,102.073,82.719,79.7l39.042-.7Z" transform="translate(-20.878 -23.766)"/><path class="d" d="M53.168,48H28.949a1.4,1.4,0,0,0-1.231.7L15.629,69.674a1.4,1.4,0,0,0,0,1.4L27.718,92.048a1.4,1.4,0,0,0,1.21.7h24.24a1.4,1.4,0,0,0,1.21-.7l12.11-20.975a1.4,1.4,0,0,0,0-1.4L54.377,48.7A1.4,1.4,0,0,0,53.168,48Z" transform="translate(-4.645 -14.44)"/><path class="e" d="M52.265,93.942H28.045a3.5,3.5,0,0,1-3.027-1.748L12.908,71.219a3.5,3.5,0,0,1,0-3.5l12.11-20.975A3.5,3.5,0,0,1,28.045,45H52.265a3.5,3.5,0,0,1,3.027,1.748L67.4,67.723a3.5,3.5,0,0,1,0,3.5L55.292,92.194A3.5,3.5,0,0,1,52.265,93.942Zm-23.814-4.2H51.859L63.57,69.471,51.859,49.2H28.451L16.74,69.471ZM52.265,49.2Z" transform="translate(-3.742 -13.537)"/><path class="e" d="M68.493,93.941a2.1,2.1,0,0,1-.461-4.146L112.89,79.726h0l5.95-10.257-5.922-10.25h0L68.031,49.145a2.1,2.1,0,0,1,.923-4.1l44.7,10.033a3.5,3.5,0,0,1,2.748,1.734L122.7,67.722a3.5,3.5,0,0,1,0,3.5l-6.293,10.907a3.5,3.5,0,0,1-2.748,1.734L68.982,93.892a2.1,2.1,0,0,1-.489.049Zm44.859-34.679Z" transform="translate(-19.97 -13.536)"/><rect class="f" width="112" height="112"/></svg>