<svg xmlns="http://www.w3.org/2000/svg" width="112" height="112" viewBox="0 0 112 112"><defs><style>.a{fill:#f6f6f6;}.b{fill:#aaa;}.c{fill:#123250;}.d{fill:#fff;}.e{fill:#c7c7c7;}</style></defs><rect class="a" width="112" height="112"/><g transform="translate(-1.537 -24.549)"><path class="b" d="M58.378,95.774,95.6,89,16.14,95.71V95.8Z" transform="translate(2.287 -19.454)"/><rect class="c" width="48" height="16" rx="3" transform="translate(15.537 76.263)"/><path class="c" d="M117.344,53.051v-2.6c0-1.021-.876-1.726-2.149-1.569l-39.342,7.1,3.624,15.246L115.485,55.76A2.482,2.482,0,0,0,117.344,53.051Z" transform="translate(-17.593 20.695)"/><rect class="d" width="8" height="40" transform="translate(59.537 80.263) rotate(90)"/><path class="e" d="M116.317,54.395v-1c0-.68-.094-.932-1.111-.714l-33.438,8.2v7.42L115.345,55.44C116.033,55.162,116.317,55.017,116.317,54.395Z" transform="translate(-18.201 19.032)"/></g></svg>