<svg xmlns="http://www.w3.org/2000/svg" width="112" height="112" viewBox="0 0 112 112"><defs><style>.a{fill:#f6f6f6bf;}.b{fill:#c7c7c7;}.c{fill:#fff;}.d{fill:#033551;}.e{fill:#1899e1;}.f{fill:none;}</style></defs><rect class="a" width="112" height="112"/><g transform="translate(0.435)"><path class="b" d="M116.989,83.573a1.4,1.4,0,0,0,1.4-1.4V56.166a1.4,1.4,0,0,0-1.4-1.4L72.2,44V94.34Z" transform="translate(-21.72 -13.237)"/><path class="c" d="M52.325,94.738H26.455a4.712,4.712,0,0,1-4.705-4.705V47.705A4.712,4.712,0,0,1,26.455,43H52.325a4.712,4.712,0,0,1,4.705,4.705V90.04a4.705,4.705,0,0,1-4.705,4.7Z" transform="translate(-6.543 -12.936)"/><path class="d" d="M51.425,95.933H25.556a6.8,6.8,0,0,1-6.8-6.8V46.8A6.8,6.8,0,0,1,25.549,40H51.418a6.8,6.8,0,0,1,6.8,6.8V89.138A6.8,6.8,0,0,1,51.425,95.933ZM25.556,44.2a2.608,2.608,0,0,0-2.6,2.608V89.131a2.608,2.608,0,0,0,2.594,2.608H51.418a2.608,2.608,0,0,0,2.6-2.6V46.8a2.608,2.608,0,0,0-2.6-2.608Z" transform="translate(-5.644 -12.033)"/><rect class="e" width="18.374" height="35.923" transform="translate(23.66 37.972)"/><path class="d" d="M49.207,55.505V87.233H35.035V55.505H49.207m4.2-4.2H30.84V91.428H53.4Z" transform="translate(-9.278 -15.436)"/><path class="d" d="M64.571,95.932a2.1,2.1,0,0,1-.5-4.139l48.012-11.641a2.4,2.4,0,0,1,.5-.056.489.489,0,0,0,.489-.489V56.324a.489.489,0,0,0-.489-.489,2.35,2.35,0,0,1-.5-.056L64.074,44.138a2.1,2.1,0,1,1,.986-4.083l47.809,11.592a4.7,4.7,0,0,1,4.4,4.677V79.607a4.691,4.691,0,0,1-4.4,4.677L65.06,95.876A2.335,2.335,0,0,1,64.571,95.932Z" transform="translate(-18.789 -12.032)"/><rect class="f" width="112" height="112" transform="translate(-0.435)"/></g></svg>