<svg xmlns="http://www.w3.org/2000/svg" width="112" height="112" viewBox="0 0 112 112"><defs><style>.a{fill:#f6f6f6bf;}.b{fill:#c7c7c7;}.c{fill:#aaa;}.d{fill:#033551;}.e{fill:none;}</style></defs><rect class="a" width="112" height="112"/><g transform="translate(0.152)"><path class="b" d="M103.82,94.66l12.641,4.2-62.946,9.984-2.265-8.7Z" transform="translate(-15.418 -28.477)"/><path class="b" d="M103.612,55.7,56.09,46h0A22.373,22.373,0,0,1,73.779,67.877c0,10.718-5.167,13.781-15.179,16.011l45.446-3.831a12.305,12.305,0,0,0-.461-24.359Z" transform="translate(-16.874 -13.838)"/><path class="c" d="M72.9,77.3h40.622a12.312,12.312,0,0,1-10.781,12.193L53.1,93.521C61.532,94.507,69.041,88.717,72.9,77.3Z" transform="translate(-15.974 -23.254)"/><path class="d" d="M53.549,85.4a2.1,2.1,0,1,1-.175-4.2l49.019-4.125a10.208,10.208,0,0,0-.461-20.192h-.161L54.248,47.213a2.1,2.1,0,1,1,.839-4.111l47.446,9.656a14.4,14.4,0,0,1,.454,28.5h-.161l-49.1,4.132Z" transform="translate(-15.451 -12.953)"/><path class="d" d="M55.665,110.043h-2.1a2.1,2.1,0,0,1,0-4.2h1.909l52.3-8.579-4.566-1.517a2.1,2.1,0,0,1,1.321-3.978l12.641,4.2a2.1,2.1,0,0,1-.322,4.062l-60.814,9.984A1.81,1.81,0,0,1,55.665,110.043Z" transform="translate(-15.484 -27.583)"/><path class="b" d="M35.749,67.234c.161,4.237,3.083,6.992,7.551,6.8s6.768-4.894,6.656-9.138c-.147-5.335-4.747-9.991-11.662-10.068-6.46-.035-12.746,5.978-12.5,12.767a16.864,16.864,0,0,0,17.85,16.242c9.837-.357,16.535-7.936,16.605-17.549C60.325,54.9,52.767,45,37.371,45,24.856,45,15.417,55.488,15.48,67.429c.07,12.452,8.789,26.652,28.526,26.457" transform="translate(-4.657 -13.537)"/><path class="d" d="M42.712,95.137c-8.858,0-16.4-2.8-21.842-8.18A28.89,28.89,0,0,1,12.48,66.6a24.807,24.807,0,0,1,7.159-17.549A23.583,23.583,0,0,1,36.468,42h.042c7.691,0,14.116,2.37,18.577,6.859a22.934,22.934,0,0,1,6.355,16.507c-.077,11-7.908,19.283-18.626,19.654A19.048,19.048,0,0,1,22.793,66.765a14.319,14.319,0,0,1,4.2-10.376A14.487,14.487,0,0,1,37.4,51.823c7.649.084,13.55,5.293,13.732,12.11.2,7.118-4.321,11.131-8.67,11.292-5.593.2-9.523-3.335-9.718-8.817a2.1,2.1,0,0,1,4.2-.154c.119,3.111,2.153,4.894,5.377,4.782s4.712-4.2,4.635-6.992c-.126-4.517-4.244-7.971-9.586-8.026A10.348,10.348,0,0,0,30,59.318a10.089,10.089,0,0,0-3.013,7.292A14.816,14.816,0,0,0,42.663,80.832c8.467-.322,14.522-6.67,14.585-15.466a18.894,18.894,0,0,0-5.139-13.522c-3.65-3.678-9.047-5.593-15.6-5.593h-.035A19.423,19.423,0,0,0,22.632,52a20.632,20.632,0,0,0-5.943,14.55,24.681,24.681,0,0,0,7.125,17.4c4.712,4.635,11.389,7.041,19.269,6.992a2.1,2.1,0,1,1,.042,4.195Z" transform="translate(-3.754 -12.635)"/><rect class="e" width="112" height="112" transform="translate(-0.152)"/></g></svg>