<svg xmlns="http://www.w3.org/2000/svg" width="112" height="112" viewBox="0 0 112 112"><defs><style>.a{fill:#f6f6f600;}.b{fill:#c7c7c7;}.c{fill:#033551;}.d{fill:none;}</style></defs><rect class="a" width="112" height="112"/><g transform="translate(-0.283)"><rect class="b" width="44" height="45" rx="2" transform="translate(86.283 70) rotate(180)"/><path class="c" d="M102.446,81.942H60.5a3.5,3.5,0,0,1-3.5-3.5V36.5A3.5,3.5,0,0,1,60.5,33h41.95a3.5,3.5,0,0,1,3.5,3.5v41.95A3.5,3.5,0,0,1,102.446,81.942ZM61.2,77.747h40.552V37.2H61.2ZM102.446,37.2Z" transform="translate(-17.147 -9.927)"/><rect class="b" width="45" height="44" rx="2" transform="translate(78.283 78) rotate(180)"/><path class="c" d="M90.446,93.942H48.5a3.5,3.5,0,0,1-3.5-3.5V48.5A3.5,3.5,0,0,1,48.5,45h41.95a3.5,3.5,0,0,1,3.5,3.5v41.95A3.5,3.5,0,0,1,90.446,93.942ZM49.2,89.747H89.747V49.2H49.2ZM90.446,49.2Z" transform="translate(-13.537 -13.537)"/><rect class="b" width="45" height="45" rx="2" transform="translate(70.283 87) rotate(180)"/><path class="c" d="M78.446,105.942H36.5a3.5,3.5,0,0,1-3.5-3.5V60.5A3.5,3.5,0,0,1,36.5,57h41.95a3.5,3.5,0,0,1,3.5,3.5v41.95A3.5,3.5,0,0,1,78.446,105.942Zm-41.251-4.2H77.747V61.2H37.2ZM78.446,61.2Z" transform="translate(-9.927 -17.147)"/><rect class="d" width="112" height="112" transform="translate(0.283)"/></g></svg>