<svg xmlns="http://www.w3.org/2000/svg" width="112" height="112" viewBox="0 0 112 112"><defs><style>.a{fill:#f6f6f6bf;}.b{fill:none;}.c{fill:#c7c7c7;}.d{fill:#aaa;}.e{fill:#fff;}.f{fill:#033551;}.g{fill:#1899e1;}</style></defs><rect class="a" width="112" height="112"/><g transform="translate(-0.424 -0.505)"><rect class="b" width="112" height="112" transform="translate(0.424 0.505)"/><path class="c" d="M105.163,58.369,57.62,48.7h0A22.373,22.373,0,0,1,57.8,92.412l47.8-9.69a12.305,12.305,0,0,0-.461-24.359Z" transform="translate(-16.334 -14.147)"/><path class="d" d="M75.365,80h40.622a12.305,12.305,0,0,1-10.823,12.166L57.62,101.835h0A22.373,22.373,0,0,0,75.365,80Z" transform="translate(-16.334 -23.441)"/><circle class="e" cx="22.373" cy="22.373" r="22.373" transform="translate(13.249 34.064)"/><path class="f" d="M40.471,93.942A24.471,24.471,0,1,1,64.942,69.471,24.471,24.471,0,0,1,40.471,93.942Zm0-44.747A20.276,20.276,0,1,0,60.747,69.471,20.276,20.276,0,0,0,40.471,49.2Z" transform="translate(-4.813 -13.034)"/><path class="f" d="M56.74,93.667a2.1,2.1,0,0,1-.413-4.153l47.984-9.725h.077a10.208,10.208,0,0,0-.378-20.206h-.161l-47.543-9.67a2.1,2.1,0,1,1,.832-4.111l47.446,9.656a14.41,14.41,0,0,1,.5,28.5l-47.921,9.67A2.133,2.133,0,0,1,56.74,93.667Z" transform="translate(-15.433 -13.262)"/><path class="g" d="M106.054,84.056l6.1-1.4c1.853-4.761-.35-13-3.111-14.627L101.53,66.5C105.1,70.527,106.305,77.54,106.054,84.056Z" transform="translate(-29.836 -19.509)"/><path class="f" d="M105.438,84.854a1.4,1.4,0,0,1-1.4-1.454c.287-7.118-1.272-13.284-4.2-16.535a1.4,1.4,0,0,1,1.321-2.307l7.516,1.531a1.552,1.552,0,0,1,.433.168c3.6,2.1,5.677,11.278,3.7,16.34a1.4,1.4,0,0,1-1,.853l-6.1,1.4a1.462,1.462,0,0,1-.273.007ZM104,67.983c1.86,3.5,2.874,8.3,2.874,13.718l3.594-.8c1.189-4.2-.657-10.69-2.573-12.117Z" transform="translate(-29.214 -18.915)"/><path class="f" d="M125.329,83.048a1.4,1.4,0,0,1-1.4-1.573c.559-4.37-.042-7.915-1.839-10.83a1.4,1.4,0,0,1,1.475-2.1l3.2.7a1.4,1.4,0,0,1,.762.44c2.51,2.832,3.2,7.824,1.643,11.886a1.4,1.4,0,0,1-.916.8l-2.552.636A1.4,1.4,0,0,1,125.329,83.048Zm.552-10.991a18.94,18.94,0,0,1,1.042,7.355,9.537,9.537,0,0,0-1.042-7.355Z" transform="translate(-35.844 -20.117)"/><path class="g" d="M85.111,63.206,77.05,61.5A22.373,22.373,0,0,1,78.9,84.279L77.714,86.81l12.809-2.524C93.452,79.678,89.425,66.52,85.111,63.206Z" transform="translate(-22.625 -18.001)"/><path class="f" d="M77.1,87.608a1.4,1.4,0,0,1-1.272-1.979L76.983,83.1A20.975,20.975,0,0,0,75.27,61.711a1.4,1.4,0,0,1,1.4-2.181l8.124,1.72a1.4,1.4,0,0,1,.559.259c4.894,3.789,9.089,17.675,5.768,22.94a1.4,1.4,0,0,1-.909.622L77.4,87.58A1.8,1.8,0,0,1,77.1,87.608ZM79.29,62.935a23.772,23.772,0,0,1,.245,21.388h0l9.453-1.881c1.587-3.88-1.021-15.046-5.125-18.535Z" transform="translate(-22.011 -17.401)"/><path class="g" d="M127.945,81.4l1.286-.385a15.78,15.78,0,0,0-1.238-8.243l-1.314-.147C127.7,74.9,127.827,78.6,127.945,81.4Z" transform="translate(-37.296 -21.353)"/></g></svg>