<svg xmlns="http://www.w3.org/2000/svg" width="112" height="112" viewBox="0 0 112 112"><defs><style>.a{fill:#f6f6f6;}.b{fill:#c7c7c7;}.c{fill:#033551;}</style></defs><rect class="a" width="112" height="112"/><g transform="translate(-11.466 -11.469)"><path class="b" d="M39.54,54.737,54.607,39.67l7.523,7.523L69.3,40.026l7.411,7.411,7.7-7.708,7.478,7.478,7.471,7.471-7.53,7.537,6.885,6.878-7.73,7.73,7.641,7.634L84.082,99l-7.174-7.174L69.63,99.1l-7.878-7.878-7.463,7.463L39.933,84.331l7.36-7.36-7.263-7.263,7.478-7.478Z" transform="translate(-1.974 -2.007)"/><rect class="c" width="4.447" height="67.332" rx="1" transform="translate(97.2 49.584) rotate(45)"/><rect class="c" width="4.447" height="67.332" rx="1" transform="translate(82.377 34.765) rotate(45)"/><rect class="c" width="4.447" height="96.348" rx="2" transform="translate(103.191 100.045) rotate(135)"/><rect class="c" width="4.447" height="96.348" rx="2" transform="translate(35.06 103.191) rotate(-135)"/><rect class="c" width="4.447" height="44.468" rx="2" transform="translate(77.437 89.113) rotate(135)"/><rect class="c" width="4.447" height="44.468" rx="2" transform="translate(92.26 74.293) rotate(135)"/><rect class="c" width="4.447" height="96.348" rx="1" transform="translate(35.06 103.191) rotate(-135)"/><rect class="c" width="4.447" height="96.348" rx="1" transform="translate(31.914 35.061) rotate(-45)"/><rect class="c" width="4.447" height="46.373" rx="1" transform="translate(67.55 34.768) rotate(45)"/><rect class="c" width="4.447" height="45.417" rx="1" transform="translate(70.697 97.199) rotate(135)"/><rect class="c" width="4.447" height="46.373" rx="1" transform="translate(100.342 67.554) rotate(135)"/><rect class="c" width="4.447" height="25.406" rx="1" transform="translate(52.729 34.765) rotate(45)"/><rect class="c" width="4.447" height="67.332" rx="1" transform="translate(34.759 52.73) rotate(-45)"/><rect class="c" width="4.447" height="67.332" rx="1" transform="translate(49.581 37.904) rotate(-45)"/><rect class="c" width="4.447" height="46.373" rx="1" transform="translate(97.196 64.412) rotate(45)"/><rect class="c" width="4.447" height="25.406" rx="1" transform="translate(97.197 79.236) rotate(45)"/><rect class="c" width="4.447" height="25.384" rx="2" transform="translate(55.874 97.202) rotate(135)"/><rect class="c" width="4.447" height="25.421" rx="1" transform="translate(100.356 52.739) rotate(135)"/><rect class="c" width="4.447" height="10.583" rx="1" transform="translate(40.077 32.593) rotate(45)"/><rect class="c" width="4.447" height="10.583" rx="1" transform="translate(102.514 40.076) rotate(135)"/><rect class="c" width="4.447" height="10.583" rx="1" transform="translate(43.22 99.381) rotate(135)"/><rect class="c" width="4.447" height="10.583" rx="1" transform="translate(99.56 91.903) rotate(45)"/></g></svg>