<svg xmlns="http://www.w3.org/2000/svg" width="112" height="112" viewBox="0 0 112 112"><defs><style>.a{fill:#f6f6f6;}.b{fill:#033551;}.c{fill:#fff;}.d{fill:#c7c7c7;}.e{fill:#aaa;}</style></defs><rect class="a" width="112" height="112"/><g transform="translate(1.332 -12.9)"><path class="b" d="M66.515,45h8.8V92.392H63.13V48.385A3.385,3.385,0,0,1,66.515,45Z" transform="translate(-16.795)"/><path class="b" d="M0,0H12.186V47.392h-8.8A3.385,3.385,0,0,1,0,44.007Z" transform="translate(58.522 80.205) rotate(90)"/><path class="b" d="M121.752,73.232v-13.5a3.385,3.385,0,0,0-2.41-3.223L81.13,45V92.392L119.666,76.36A3.385,3.385,0,0,0,121.752,73.232Z" transform="translate(-22.608)"/><rect class="c" width="4.062" height="39.267" transform="translate(54.812 88.33) rotate(180)"/><rect class="c" width="4.062" height="39.267" transform="translate(54.805 84.267) rotate(90)"/><path class="d" d="M118.366,74.125V63.2a1.354,1.354,0,0,0-.988-1.307L81.13,52V89.913l36.4-14.529A1.354,1.354,0,0,0,118.366,74.125Z" transform="translate(-22.608 -2.261)"/><path class="e" d="M47.953,95.708V93L16.14,95.708v-.027Z" transform="translate(-1.618 -15.503)"/></g></svg>