<svg xmlns="http://www.w3.org/2000/svg" width="112" height="112" viewBox="0 0 112 112"><defs><style>.a{fill:#f6f6f6;}.b{fill:#c7c7c7;}.c{fill:#aaa;}.d{fill:#033551;}.e{fill:#fff;}.f{fill:#1899e1;}.g{fill:none;}</style></defs><rect class="a" width="112" height="112"/><g transform="translate(-0.131)"><path class="b" d="M105.133,58.369,57.59,48.7h0a22.373,22.373,0,0,1,.182,43.712l47.8-9.69a12.305,12.305,0,0,0-.461-24.359Z" transform="translate(-17.325 -14.65)"/><path class="c" d="M75.365,80h40.622a12.305,12.305,0,0,1-10.823,12.166L57.62,101.835h0A22.373,22.373,0,0,0,75.365,80Z" transform="translate(-17.334 -24.067)"/><path class="d" d="M56.711,93.649a2.1,2.1,0,0,1-.419-4.153l47.984-9.725h.084a10.208,10.208,0,0,0-.385-20.206h-.161L56.278,49.853a2.1,2.1,0,0,1,.839-4.111L104.562,55.4a14.41,14.41,0,0,1,.5,28.5L57.124,93.607a2.1,2.1,0,0,1-.413.042Z" transform="translate(-16.425 -13.748)"/><circle class="e" cx="22.373" cy="22.373" r="22.373" transform="translate(13.27 33.56)"/><path class="d" d="M40.471,93.942A24.471,24.471,0,1,1,64.942,69.471,24.471,24.471,0,0,1,40.471,93.942Zm0-44.747A20.276,20.276,0,1,0,60.747,69.471,20.276,20.276,0,0,0,40.471,49.2Z" transform="translate(-4.813 -13.537)"/><circle class="f" cx="14.529" cy="14.529" r="14.529" transform="translate(21.115 41.405)"/><path class="d" d="M43.84,60.415A12.431,12.431,0,1,1,31.4,72.849,12.431,12.431,0,0,1,43.84,60.415m0-4.2A16.626,16.626,0,1,0,60.452,72.846,16.626,16.626,0,0,0,43.84,56.22Z" transform="translate(-8.183 -16.913)"/><rect class="g" width="112" height="112" transform="translate(0.131)"/></g></svg>