<svg xmlns="http://www.w3.org/2000/svg" width="112" height="112" viewBox="0 0 112 112"><defs><style>.a{fill:#f6f6f6bf;}.b{fill:#c7c7c7;}.c{fill:#1899e1;opacity:0.6;}.d{fill:#fff;}.e{fill:#033551;}.f{fill:none;}</style></defs><rect class="a" width="112" height="112"/><g transform="translate(-0.142)"><path class="b" d="M75.616,89.152H56.92V56.34h18.7l30.673,5.712V83.5Z" transform="translate(-17.123 -16.949)"/><path class="c" d="M84.37,53.444V44.39l38.391,10.522v4.076Z" transform="translate(-25.381 -13.354)"/><path class="c" d="M83.66,100.129v8.9l40.908-11.424V92.83Z" transform="translate(-25.168 -27.926)"/><path class="d" d="M62.423,52.643a1.433,1.433,0,0,0,1.4-1.433V45.448a1.433,1.433,0,0,0-1.4-1.4H19.263a1.433,1.433,0,0,0-1.433,1.4v5.761a1.433,1.433,0,0,0,1.433,1.433H36.526V85.727H19.263a1.433,1.433,0,0,0-1.433,1.4v5.831a1.433,1.433,0,0,0,1.433,1.4h43.16a1.433,1.433,0,0,0,1.4-1.4V87.2a1.433,1.433,0,0,0-1.4-1.4H45.16V52.643Z" transform="translate(-5.364 -13.252)"/><path class="e" d="M61.536,95.55H18.376a3.538,3.538,0,0,1-3.5-3.5V86.293a3.538,3.538,0,0,1,3.5-3.5H33.541V53.838H18.376a3.538,3.538,0,0,1-3.5-3.531V44.546a3.538,3.538,0,0,1,3.5-3.5h43.16a3.538,3.538,0,0,1,3.5,3.5v5.761a3.538,3.538,0,0,1-3.5,3.531H46.371v28.89H61.536a3.538,3.538,0,0,1,3.5,3.5v5.831A3.538,3.538,0,0,1,61.536,95.55Zm-42.5-4.2H60.871V86.922h-16.6a2.1,2.1,0,0,1-2.1-2.1V51.74a2.1,2.1,0,0,1,2.1-2.1h16.6V45.21H19.04v4.433h16.6a2.1,2.1,0,0,1,2.1,2.1V84.825a2.1,2.1,0,0,1-2.1,2.1H19.04Z" transform="translate(-4.476 -12.349)"/><path class="e" d="M136.045,89.046a2.095,2.095,0,0,1-1.307-3.734v-.958h-8.11a2.1,2.1,0,0,1-2.1-2.1V64.114a2.1,2.1,0,0,1,2.1-2.1h8.138v-.993a2.08,2.08,0,0,1,1.279-3.734,2.888,2.888,0,0,1,2.888,2.888v3.153a2.888,2.888,0,0,1-2.888,2.881h-7.32V80.16h7.32a2.888,2.888,0,0,1,2.888,2.881v3.153a2.888,2.888,0,0,1-2.888,2.853ZM136.045,84.851ZM136.045,61.485Z" transform="translate(-37.463 -17.235)"/><line class="d" y1="11.389" x2="41.552" transform="translate(57.059 69.714)"/><path class="e" d="M80.709,112.292a2.1,2.1,0,0,1-.559-4.118l41.559-11.4a2.1,2.1,0,0,1,1.112,4.048L81.261,112.215A1.881,1.881,0,0,1,80.709,112.292Z" transform="translate(-23.65 -29.091)"/><line class="d" x1="41.552" y1="11.389" transform="translate(57.059 30.763)"/><path class="e" d="M122.228,56.574a2.189,2.189,0,0,1-.559-.07L80.11,45.108a2.1,2.1,0,1,1,1.112-4.041L122.78,52.456a2.1,2.1,0,0,1-.552,4.118Z" transform="translate(-23.61 -12.324)"/><line class="d" x2="41.552" y2="7.194" transform="translate(57.059 39.545)"/><path class="e" d="M122.223,64.944a2.181,2.181,0,0,1-.364,0L80.308,57.722a2.1,2.1,0,1,1,.7-4.132l41.573,7.194a2.1,2.1,0,0,1-.357,4.16Z" transform="translate(-23.606 -16.107)"/><line class="d" y1="7.901" x2="41.552" transform="translate(57.059 64.925)"/><path class="e" d="M80.611,101.936a2.106,2.106,0,1,1-.385-4.2l41.552-7.894a2.1,2.1,0,1,1,.783,4.118l-41.552,7.929A1.931,1.931,0,0,1,80.611,101.936Z" transform="translate(-23.559 -27.013)"/><rect class="f" width="112" height="112" transform="translate(0.142)"/></g></svg>