<svg xmlns="http://www.w3.org/2000/svg" width="112" height="112" viewBox="0 0 112 112"><defs><style>.a{fill:#f6f6f600;}.b{fill:#c7c7c7;}.c{fill:#fff;}.d{fill:#033551;}.e{fill:none;}</style></defs><rect class="a" width="112" height="112"/><g transform="translate(0.01)"><path class="b" d="M123.658,83.28a1.4,1.4,0,0,0,1.4-1.4V60.068a1.4,1.4,0,0,0-1.4-1.4L84.47,50V91.95Z" transform="translate(-25.411 -15.042)"/><rect class="c" width="44.747" height="44.747" rx="2" transform="translate(14.312 33.56)"/><path class="d" d="M62.916,93.942H20.966a3.5,3.5,0,0,1-3.5-3.5V48.5a3.5,3.5,0,0,1,3.5-3.5h41.95a3.5,3.5,0,0,1,3.5,3.5v41.95a3.5,3.5,0,0,1-3.5,3.5Zm-41.251-4.2H62.217V49.2H21.665Z" transform="translate(-5.256 -13.537)"/><path class="d" d="M81.543,93.936a2.1,2.1,0,0,1-.5-4.132L121.43,79.785V59.145l-40.4-10.019a2.1,2.1,0,1,1,1.014-4.069l40.419,10.019a3.5,3.5,0,0,1,3.181,3.5v21.8a3.5,3.5,0,0,1-3.181,3.5L82.046,93.873a2.1,2.1,0,0,1-.5.063Z" transform="translate(-23.882 -13.532)"/><rect class="e" width="112" height="112" transform="translate(-0.01)"/></g></svg>