<svg xmlns="http://www.w3.org/2000/svg" xmlns:xlink="http://www.w3.org/1999/xlink" width="24" height="24" preserveAspectRatio="xMidYMid meet" viewBox="0 0 24 24" style="-ms-transform: rotate(360deg); -webkit-transform: rotate(360deg); transform: rotate(360deg);"><path d="M13 16H7a1 1 0 0 0 0 2h6a1 1 0 0 0 0-2zm-4-6h2a1 1 0 0 0 0-2H9a1 1 0 0 0 0 2zm12 2h-3V3a1 1 0 0 0-.5-.87a1 1 0 0 0-1 0l-3 1.72l-3-1.72a1 1 0 0 0-1 0l-3 1.72l-3-1.72a1 1 0 0 0-1 0A1 1 0 0 0 2 3v16a3 3 0 0 0 3 3h14a3 3 0 0 0 3-3v-6a1 1 0 0 0-1-1zM5 20a1 1 0 0 1-1-1V4.73l2 1.14a1.08 1.08 0 0 0 1 0l3-1.72l3 1.72a1.08 1.08 0 0 0 1 0l2-1.14V19a3 3 0 0 0 .18 1zm15-1a1 1 0 0 1-2 0v-5h2zm-7-7H7a1 1 0 0 0 0 2h6a1 1 0 0 0 0-2z" fill="#585858"/><rect x="0" y="0" width="24" height="24" fill="rgba(0, 0, 0, 0)" /></svg>