<svg xmlns="http://www.w3.org/2000/svg" width="24" height="24" viewBox="0 0 24 24"><defs><style>.a{fill:none;}.b{fill:#1899e1;}</style></defs><rect class="a" width="24" height="24"/><path class="b" d="M-6789.809,1580.542l-1.449-1.32-.005-.005c-5.146-4.666-8.545-7.747-8.545-11.525a5.565,5.565,0,0,1,.583-2.5l-2.774-2.774,1.415-1.413,17.677,17.677-1.414,1.413-2.374-2.374c-.546.5-1.107,1.01-1.657,1.51l0,.005-1.451,1.309v0Zm6.576-6.188-12.074-12.074a5.607,5.607,0,0,1,1-.087,5.985,5.985,0,0,1,4.5,2.089,5.993,5.993,0,0,1,4.5-2.089,5.441,5.441,0,0,1,5.5,5.5c0,2.1-1.024,4.094-3.423,6.661Z" transform="translate(6802.809 -1559.192)"/></svg>