<svg xmlns="http://www.w3.org/2000/svg" width="24" height="24" viewBox="0 0 24 24">
  <defs><style>.a{fill:none;}.b{fill:#DEDEDE;}</style></defs>
  <g transform="translate(-580 -80)">
    <path class="a" d="M0,0H24V24H0Z" transform="translate(580 80)"/>
    <path class="b" d="M7.031,11.781h2.52l-.72,6.36,1.42,1.42,1.78-1.78,4,5h2v-2.52l6.36.7,1.42-1.42-1.78-1.76,5-4v-2h-2.52l.7-6.36L25.791,4l-1.76,1.78-4-5h-2V3.3l-6.36-.72L10.251,4l1.78,1.78-5,4Zm11-3a3,3,0,1,1-3,3,3,3,0,0,1,3-3Z" transform="translate(574.409 80.409)"/>
  </g>
</svg>