<svg xmlns="http://www.w3.org/2000/svg" width="112" height="112" viewBox="0 0 112 112"><defs><style>.a{fill:#f6f6f600;}.b{fill:#c7c7c7;}.c{fill:#aaa;}.d{fill:#fff;}.e{fill:#033551;}.f{fill:none;}</style></defs><rect class="a" width="112" height="112"/><g transform="translate(0.293)"><path class="b" d="M105.163,58.369,57.62,48.7h0A22.373,22.373,0,0,1,57.8,92.412l47.8-9.69a12.305,12.305,0,0,0-.461-24.359Z" transform="translate(-17.334 -14.65)"/><path class="c" d="M75.365,80h40.622a12.305,12.305,0,0,1-10.823,12.166L57.62,101.835h0A22.373,22.373,0,0,0,75.365,80Z" transform="translate(-17.334 -24.067)"/><circle class="d" cx="22.373" cy="22.373" r="22.373" transform="translate(13.249 33.56)"/><path class="e" d="M40.471,93.942A24.471,24.471,0,1,1,64.942,69.471,24.471,24.471,0,0,1,40.471,93.942Zm0-44.747A20.276,20.276,0,1,0,60.747,69.471,20.276,20.276,0,0,0,40.471,49.2Z" transform="translate(-4.813 -13.537)"/><path class="e" d="M56.74,93.667a2.1,2.1,0,0,1-.413-4.153l47.984-9.725h.077a10.208,10.208,0,0,0-.378-20.206h-.161l-47.543-9.67a2.1,2.1,0,1,1,.832-4.111l47.446,9.656a14.41,14.41,0,0,1,.5,28.5l-47.921,9.67A2.133,2.133,0,0,1,56.74,93.667Z" transform="translate(-16.433 -13.766)"/><rect class="f" width="112" height="112" transform="translate(-0.293)"/></g></svg>