<svg xmlns="http://www.w3.org/2000/svg" xmlns:xlink="http://www.w3.org/1999/xlink" width="256" height="192" viewBox="0 0 256 192"><defs><style>.a{fill:none;}.b{opacity:0.101;clip-path:url(#a);}.c{fill:#f6f6f6;}.d{fill:#c7c7c7;}.e{fill:#fff;}.f{fill:#123250;}.g,.j{fill:#1899e1;}.h{fill:#aaa;}.i,.j{opacity:0.6;}</style><clipPath id="a"><rect class="a" width="256" height="192"/></clipPath></defs><g class="b"><g transform="translate(0)"><g transform="translate(192 128)"><rect class="c" width="64" height="64"/><path class="d" d="M97.794,66.613a.8.8,0,0,0,.8-.8V50.952a.8.8,0,0,0-.8-.8L72.2,44V72.766Z" transform="translate(-43.106 -26.421)"/><path class="e" d="M39.221,72.565H24.439a2.693,2.693,0,0,1-2.689-2.689V45.689A2.693,2.693,0,0,1,24.439,43H39.221a2.693,2.693,0,0,1,2.689,2.689V69.88a2.689,2.689,0,0,1-2.689,2.685Z" transform="translate(-12.812 -25.82)"/><path class="f" d="M37.426,71.962H22.643a3.887,3.887,0,0,1-3.883-3.887V43.887A3.887,3.887,0,0,1,22.639,40H37.422a3.887,3.887,0,0,1,3.887,3.887V68.079A3.887,3.887,0,0,1,37.426,71.962ZM22.643,42.4a1.49,1.49,0,0,0-1.486,1.49V68.075a1.49,1.49,0,0,0,1.482,1.49H37.422a1.49,1.49,0,0,0,1.486-1.486V43.887a1.49,1.49,0,0,0-1.486-1.49Z" transform="translate(-11.017 -24.019)"/><rect class="g" width="10.5" height="20.528" transform="translate(13.768 21.698)"/><path class="f" d="M41.336,53.707v18.13h-8.1V53.707h8.1m2.4-2.4H30.84V74.235H43.733Z" transform="translate(-18.27 -30.81)"/><path class="f" d="M63.665,71.959a1.2,1.2,0,0,1-.284-2.365l27.435-6.652a1.371,1.371,0,0,1,.284-.032.28.28,0,0,0,.28-.28v-13.3a.28.28,0,0,0-.28-.28,1.342,1.342,0,0,1-.284-.032L63.381,42.362a1.2,1.2,0,1,1,.563-2.333l27.319,6.624a2.685,2.685,0,0,1,2.513,2.673v13.3A2.681,2.681,0,0,1,91.264,65.3L63.945,71.927A1.334,1.334,0,0,1,63.665,71.959Z" transform="translate(-37.256 -24.016)"/><rect class="a" width="64" height="64"/></g><g transform="translate(192)"><rect class="c" width="64" height="64"/><g transform="translate(0 0)"><rect class="a" width="64" height="64"/><path class="d" d="M84.788,54.225,57.62,48.7h0a12.785,12.785,0,0,1,.1,24.978l27.316-5.537a7.032,7.032,0,0,0-.264-13.919Z" transform="translate(-34.27 -29.244)"/><path class="h" d="M67.76,80H90.972a7.032,7.032,0,0,1-6.185,6.952L57.62,92.477h0A12.785,12.785,0,0,0,67.76,80Z" transform="translate(-34.27 -47.969)"/><circle class="e" cx="12.785" cy="12.785" r="12.785" transform="translate(7.329 19.177)"/><path class="f" d="M29.983,72.967A13.983,13.983,0,1,1,43.967,58.983,13.983,13.983,0,0,1,29.983,72.967Zm0-25.57A11.586,11.586,0,1,0,41.57,58.983,11.586,11.586,0,0,0,29.983,47.4Z" transform="translate(-9.85 -27.022)"/><path class="f" d="M55.833,73.135a1.2,1.2,0,0,1-.236-2.373L83.017,65.2h.044a5.833,5.833,0,0,0-.216-11.546h-.092L55.586,48.133a1.2,1.2,0,1,1,.475-2.349L83.173,51.3a8.234,8.234,0,0,1,.284,16.285L56.073,73.111A1.218,1.218,0,0,1,55.833,73.135Z" transform="translate(-32.472 -27.478)"/><path class="g" d="M104.115,76.532l3.488-.8c1.059-2.721-.2-7.431-1.778-8.358L101.53,66.5C103.572,68.8,104.259,72.809,104.115,76.532Z" transform="translate(-60.804 -39.936)"/><path class="f" d="M102.886,76.143a.8.8,0,0,1-.8-.831c.164-4.067-.727-7.591-2.4-9.449a.8.8,0,0,1,.755-1.318l4.295.875a.887.887,0,0,1,.248.1c2.058,1.2,3.244,6.444,2.113,9.337a.8.8,0,0,1-.571.487l-3.488.8A.836.836,0,0,1,102.886,76.143Zm-.823-9.641a17.027,17.027,0,0,1,1.642,7.839l2.054-.459c.679-2.4-.376-6.109-1.47-6.924Z" transform="translate(-59.572 -38.752)"/><path class="f" d="M123.854,76.822a.8.8,0,0,1-.8-.9A9.189,9.189,0,0,0,122,69.734a.8.8,0,0,1,.843-1.2l1.83.4a.8.8,0,0,1,.435.252,6.981,6.981,0,0,1,.939,6.792.8.8,0,0,1-.523.455l-1.458.364A.8.8,0,0,1,123.854,76.822Zm.316-6.281a10.823,10.823,0,0,1,.6,4.2A5.449,5.449,0,0,0,124.17,70.541Z" transform="translate(-72.962 -41.149)"/><path class="g" d="M81.657,62.475,77.05,61.5A12.785,12.785,0,0,1,78.1,74.517l-.675,1.446,7.319-1.442C86.423,71.888,84.122,64.369,81.657,62.475Z" transform="translate(-46.193 -36.932)"/><path class="f" d="M76.207,75.565a.8.8,0,0,1-.727-1.131l.659-1.446a11.986,11.986,0,0,0-.979-12.221.8.8,0,0,1,.8-1.247L80.6,60.5a.8.8,0,0,1,.32.148c2.8,2.165,5.194,10.1,3.3,13.108a.8.8,0,0,1-.519.356l-7.319,1.434A1.031,1.031,0,0,1,76.207,75.565Zm1.251-14.1a13.584,13.584,0,0,1,.14,12.221h0L83,72.612c.907-2.217-.583-8.6-2.929-10.591Z" transform="translate(-44.969 -35.734)"/><path class="g" d="M127.4,77.644l.735-.22a9.017,9.017,0,0,0-.707-4.71l-.751-.084A15.543,15.543,0,0,1,127.4,77.644Z" transform="translate(-75.846 -43.617)"/></g></g><g transform="translate(128)"><rect class="c" width="64" height="64"/><rect class="d" width="25.143" height="25.714" rx="2" transform="translate(49.143 40) rotate(180)"/><path class="f" d="M82.969,60.967H59a2,2,0,0,1-2-2V35a2,2,0,0,1,2-2H82.969a2,2,0,0,1,2,2V58.969A2,2,0,0,1,82.969,60.967ZM59.4,58.57H82.57V35.4H59.4ZM82.969,35.4Z" transform="translate(-34.389 -19.816)"/><rect class="d" width="25.714" height="25.143" rx="2" transform="translate(44.571 44.571) rotate(180)"/><path class="f" d="M70.969,72.967H47a2,2,0,0,1-2-2V47a2,2,0,0,1,2-2H70.969a2,2,0,0,1,2,2V70.969A2,2,0,0,1,70.969,72.967ZM47.4,70.57H70.57V47.4H47.4ZM70.969,47.4Z" transform="translate(-27.183 -27.021)"/><rect class="d" width="25.714" height="25.714" rx="2" transform="translate(40 49.714) rotate(180)"/><path class="f" d="M58.969,84.967H35a2,2,0,0,1-2-2V59a2,2,0,0,1,2-2H58.969a2,2,0,0,1,2,2V82.969A2,2,0,0,1,58.969,84.967ZM35.4,82.57H58.57V59.4H35.4ZM58.969,59.4Z" transform="translate(-19.977 -34.227)"/><rect class="a" width="64" height="64"/></g><g transform="translate(0 128)"><rect class="c" width="64" height="64" transform="translate(0)"/><path class="d" d="M56.92,75.09V56.34L85.13,59.6,85.1,70.991Z" transform="translate(-34.005 -33.831)"/><g class="i" transform="translate(31.776 17.735)"><path class="g" d="M79.1,49.3l1.822-4.91L104.3,51.114l-1.654,2.305Z" transform="translate(-79.1 -44.39)"/></g><g class="i" transform="translate(30.889 37.16)"><path class="g" d="M76.88,96.242l2.709,5.953,23.376-6.528-1.418-2.489-4.459-.168Z" transform="translate(-76.88 -93.01)"/></g><line class="e" y1="6.472" x2="23.656" transform="translate(32.979 39.872)"/><path class="f" d="M80.317,105.649A1.2,1.2,0,0,1,80,103.3l23.652-6.472a1.2,1.2,0,1,1,.635,2.309l-23.656,6.472a1.075,1.075,0,0,1-.316.044Z" transform="translate(-47.339 -58.106)"/><line class="e" x1="23.744" y1="6.508" transform="translate(32.779 17.579)"/><path class="f" d="M103.48,49.885a1.251,1.251,0,0,1-.32-.04L79.413,43.333a1.2,1.2,0,1,1,.635-2.309L103.8,47.532a1.2,1.2,0,0,1-.316,2.353Z" transform="translate(-46.954 -24.599)"/><line class="e" x2="28.182" y2="4.255" transform="translate(22.915 22.509)"/><path class="f" d="M83.359,60.008a1.359,1.359,0,0,1-.18,0L55,55.737a1.2,1.2,0,0,1,.356-2.369l28.186,4.243a1.2,1.2,0,1,1-.18,2.4Z" transform="translate(-32.262 -32.042)"/><line class="e" y1="4.099" x2="28.182" transform="translate(22.915 37.16)"/><path class="f" d="M54.978,96.481a1.2,1.2,0,1,1-.168-2.4l28.17-4.1a1.2,1.2,0,1,1,.344,2.373l-28.17,4.115a1.3,1.3,0,0,1-.176.012Z" transform="translate(-32.067 -54.024)"/><path class="e" d="M39.816,67.836H33.424V48.93h6.392a4.078,4.078,0,0,0,4.311-4.187A.687.687,0,0,0,43.508,44H18.446a.691.691,0,0,0-.619.743,4.081,4.081,0,0,0,4.315,4.187H28.51V67.836H22.141a4.081,4.081,0,0,0-4.315,4.187.691.691,0,0,0,.619.743H43.508a.687.687,0,0,0,.619-.743A4.078,4.078,0,0,0,39.816,67.836Z" transform="translate(-10.529 -26.421)"/><path class="f" d="M41.709,72.163H16.647a1.886,1.886,0,0,1-1.818-1.942,5.271,5.271,0,0,1,5.513-5.386h5.17V48.327h-5.17a5.271,5.271,0,0,1-5.513-5.386A1.886,1.886,0,0,1,16.647,41H41.709a1.886,1.886,0,0,1,1.818,1.942,5.27,5.27,0,0,1-5.509,5.386H32.823V64.836h5.194a5.268,5.268,0,0,1,5.509,5.386A1.886,1.886,0,0,1,41.709,72.163Zm-24.451-2.4H41.1a2.866,2.866,0,0,0-3.08-2.533H31.625a1.2,1.2,0,0,1-1.2-1.2V47.129a1.2,1.2,0,0,1,1.2-1.2h6.392A2.858,2.858,0,0,0,41.1,43.4H17.258a2.87,2.87,0,0,0,3.084,2.533H26.71a1.2,1.2,0,0,1,1.2,1.2V66.034a1.2,1.2,0,0,1-1.2,1.2H20.342A2.87,2.87,0,0,0,17.258,69.766Z" transform="translate(-8.73 -24.62)"/><path class="f" d="M131.2,75.418a1.2,1.2,0,0,1-.911-2,1.059,1.059,0,0,0-1.123-.719h-3.5a1.2,1.2,0,0,1-1.2-1.2V61.115a1.2,1.2,0,0,1,1.2-1.2h3.5a1.059,1.059,0,0,0,1.107-.739,1.2,1.2,0,0,1,.911-1.978,1.574,1.574,0,0,1,1.538,1.6,3.46,3.46,0,0,1-3.556,3.516h-2.305V70.3h2.305a3.46,3.46,0,0,1,3.572,3.5A1.574,1.574,0,0,1,131.2,75.418Zm0-2.4Zm0-13.424Z" transform="translate(-74.562 -34.347)"/><rect class="a" width="64" height="64"/></g><g transform="translate(192 64)"><rect class="c" width="64" height="64"/><g transform="translate(0 0)"><path class="d" d="M56.99,80.5V58.84H67.673L85.2,62.1V74.358Z" transform="translate(-34.092 -35.3)"/><rect class="a" width="64" height="64"/><g class="i" transform="translate(33.787 18.64)"><path class="g" d="M83.73,52.064V46.89l23.216,6.257v2.329Z" transform="translate(-83.73 -46.89)"/></g><line class="e" x1="23.744" y1="6.021" transform="translate(32.968 18.474)"/><path class="f" d="M103.62,51.92a1.075,1.075,0,0,1-.3-.04L79.581,45.859a1.2,1.2,0,0,1,.591-2.325l23.74,6.025a1.2,1.2,0,0,1-.292,2.361Z" transform="translate(-46.908 -26.227)"/><line class="e" x2="23.744" y2="3.724" transform="translate(32.968 23.533)"/><path class="f" d="M103.618,62.165a1.023,1.023,0,0,1-.188,0L79.687,58.417a1.2,1.2,0,0,1,.372-2.369l23.744,3.72a1.2,1.2,0,1,1-.184,2.4Z" transform="translate(-46.906 -33.712)"/><line class="e" y1="6.025" x2="28.566" transform="translate(22.041 39.424)"/><path class="f" d="M53.054,103.845a1.2,1.2,0,0,1-.248-2.373l28.566-6.021a1.2,1.2,0,1,1,.5,2.345L53.3,103.821a1.334,1.334,0,0,1-.248.024Z" transform="translate(-31.008 -57.193)"/><path class="e" d="M43.294,46.5H18.583a.823.823,0,0,0-.823.823v3.3a.823.823,0,0,0,.823.823h9.884v21a.823.823,0,0,0,.823.823h3.3a.823.823,0,0,0,.823-.823v-21h9.884a.823.823,0,0,0,.823-.823v-3.3a.823.823,0,0,0-.823-.823Z" transform="translate(-10.901 -27.923)"/><path class="f" d="M30.785,72.665h-3.3a2.026,2.026,0,0,1-2.022-2.022v-19.8H16.782a2.026,2.026,0,0,1-2.022-2.022v-3.3A2.026,2.026,0,0,1,16.782,43.5H41.492a2.026,2.026,0,0,1,2.022,2.022v3.3a2.026,2.026,0,0,1-2.022,2.022H32.807v19.8a2.026,2.026,0,0,1-2.022,2.022Zm-2.921-2.4h2.545V49.641a1.2,1.2,0,0,1,1.2-1.2h9.509V45.9H17.145v2.545h9.509a1.2,1.2,0,0,1,1.2,1.2ZM41.492,45.9Z" transform="translate(-9.099 -26.121)"/><path class="f" d="M124.573,75.7a1.2,1.2,0,0,1-.747-2.133V62.5a1.2,1.2,0,0,1,1.2-1.2h4.69v-.583a1.2,1.2,0,0,1,.747-2.133,1.65,1.65,0,0,1,1.65,1.65v1.814a1.654,1.654,0,0,1-1.65,1.65h-4.239V74.046A1.654,1.654,0,0,1,124.573,75.7Z" transform="translate(-73.75 -35.176)"/></g></g><g transform="translate(128 64)"><rect class="c" width="64" height="64"/><rect class="a" width="64" height="64"/><path class="d" d="M105.443,69.017a.8.8,0,0,0,.8-.8V55.753a.8.8,0,0,0-.8-.8L83.05,50V73.971Z" transform="translate(-50.025 -30.024)"/><path class="f" d="M74.277,72.946a1.2,1.2,0,0,1-.268-2.365l25.01-5.725V53.069l-25.01-5.725a1.2,1.2,0,1,1,.535-2.333L99.582,50.74a2,2,0,0,1,1.834,2V65.195a2,2,0,0,1-1.834,2L74.544,72.914A1.042,1.042,0,0,1,74.277,72.946Z" transform="translate(-44 -27)"/><path class="e" d="M41.781,73.57H21.593A2.7,2.7,0,0,1,18.9,70.877V50.693A2.7,2.7,0,0,1,21.593,48H41.781a2.693,2.693,0,0,1,2.689,2.693V70.881a2.693,2.693,0,0,1-2.689,2.689Z" transform="translate(-11.505 -28.823)"/><path class="f" d="M39.979,72.967H19.791A3.9,3.9,0,0,1,15.9,69.075V48.891A3.9,3.9,0,0,1,19.791,45H39.979a3.891,3.891,0,0,1,3.887,3.891V69.079a3.891,3.891,0,0,1-3.887,3.887ZM19.791,47.4A1.5,1.5,0,0,0,18.3,48.891V69.075a1.5,1.5,0,0,0,1.494,1.494H39.979a1.49,1.49,0,0,0,1.49-1.49V48.891a1.494,1.494,0,0,0-1.49-1.494Z" transform="translate(-9.703 -27.021)"/><rect class="g" width="16.6" height="16.6" transform="translate(11.882 23.66)"/><path class="f" d="M43.73,58.617V72.824h-14.2V58.617h14.2m2.4-2.4h-19v19h19Z" transform="translate(-16.447 -33.759)"/></g><g transform="translate(64 64)"><rect class="c" width="64" height="64"/><path class="d" d="M84.758,54.225,57.59,48.7h0a12.785,12.785,0,0,1,.1,24.978l27.316-5.537a7.032,7.032,0,0,0-.264-13.919Z" transform="translate(-34.656 -29.243)"/><path class="h" d="M67.76,80H90.972a7.032,7.032,0,0,1-6.185,6.952L57.62,92.477h0A12.785,12.785,0,0,0,67.76,80Z" transform="translate(-34.674 -48.038)"/><path class="f" d="M55.806,73.1a1.2,1.2,0,0,1-.24-2.373l27.419-5.557h.048a5.833,5.833,0,0,0-.22-11.546h-.092L55.558,48.072a1.2,1.2,0,1,1,.479-2.349l27.112,5.517a8.234,8.234,0,0,1,.284,16.285L56.042,73.075A1.2,1.2,0,0,1,55.806,73.1Z" transform="translate(-32.86 -27.441)"/><circle class="e" cx="12.785" cy="12.785" r="12.785" transform="translate(7.508 19.177)"/><path class="f" d="M29.983,72.967A13.983,13.983,0,1,1,43.967,58.983,13.983,13.983,0,0,1,29.983,72.967Zm0-25.57A11.586,11.586,0,1,0,41.57,58.983,11.586,11.586,0,0,0,29.983,47.4Z" transform="translate(-9.682 -27.021)"/><circle class="g" cx="8.302" cy="8.302" r="8.302" transform="translate(11.991 23.66)"/><path class="f" d="M36.709,58.617a7.1,7.1,0,1,1-7.108,7.1,7.1,7.1,0,0,1,7.108-7.1m0-2.4a9.5,9.5,0,1,0,9.493,9.5A9.5,9.5,0,0,0,36.709,56.22Z" transform="translate(-16.408 -33.759)"/><rect class="a" width="64" height="64"/></g><g transform="translate(0 64)"><rect class="c" width="64" height="64"/><path class="d" d="M106.863,69.017a.8.8,0,0,0,.8-.8V55.753a.8.8,0,0,0-.8-.8L84.47,50V73.971Z" transform="translate(-50.716 -30.024)"/><rect class="e" width="25.57" height="25.57" rx="2" transform="translate(8.184 19.177)"/><path class="f" d="M43.439,72.967H19.468a2,2,0,0,1-2-2V47a2,2,0,0,1,2-2H43.439a2,2,0,0,1,2,2V70.969a2,2,0,0,1-2,2Zm-23.572-2.4H43.04V47.4H19.867Z" transform="translate(-10.484 -27.021)"/><path class="f" d="M80.619,72.955a1.2,1.2,0,0,1-.288-2.361l23.081-5.725V53.075L80.328,47.35a1.2,1.2,0,1,1,.579-2.325L104,50.75a2,2,0,0,1,1.818,2V65.2a2,2,0,0,1-1.818,2l-23.1,5.717a1.2,1.2,0,0,1-.288.036Z" transform="translate(-47.665 -27.01)"/><rect class="a" width="64" height="64"/></g><g transform="translate(64 128)"><rect class="c" width="64" height="64"/><path class="d" d="M81.29,94.66l7.223,2.4-35.969,5.705L51.25,97.788Z" transform="translate(-30.688 -56.841)"/><path class="d" d="M83.246,51.541,56.09,46h0A12.785,12.785,0,0,1,66.2,58.5c0,6.125-2.952,7.875-8.674,9.149l25.969-2.189a7.032,7.032,0,0,0-.264-13.919Z" transform="translate(-33.594 -27.622)"/><path class="h" d="M64.415,77.3H87.627a7.036,7.036,0,0,1-6.161,6.968L53.1,86.569C57.918,87.132,62.209,83.824,64.415,77.3Z" transform="translate(-31.798 -46.417)"/><path class="f" d="M52.612,67.255a1.2,1.2,0,1,1-.1-2.4L80.523,62.5a5.833,5.833,0,0,0-.264-11.538h-.092L53.011,45.432a1.2,1.2,0,1,1,.479-2.349L80.6,48.6a8.23,8.23,0,0,1,.26,16.285H80.77L52.716,67.247Z" transform="translate(-30.755 -25.856)"/><path class="f" d="M53.867,102.178h-1.2a1.2,1.2,0,0,1,0-2.4h1.091l29.884-4.9-2.609-.867a1.2,1.2,0,0,1,.755-2.273l7.223,2.4a1.2,1.2,0,0,1-.184,2.321l-34.751,5.705A1.034,1.034,0,0,1,53.867,102.178Z" transform="translate(-30.82 -55.058)"/><path class="d" d="M27.062,57.7a3.844,3.844,0,0,0,4.315,3.883c2.553-.112,3.867-2.8,3.8-5.222-.084-3.048-2.713-5.709-6.664-5.753a7.382,7.382,0,0,0-7.144,7.3,9.636,9.636,0,0,0,10.2,9.281c5.621-.2,9.449-4.535,9.489-10.028C41.105,50.657,36.786,45,27.989,45A12.647,12.647,0,0,0,15.48,57.817c.04,7.116,5.022,15.23,16.3,15.118" transform="translate(-9.208 -27.021)"/><path class="f" d="M29.755,72.364c-5.062,0-9.373-1.6-12.481-4.674A16.508,16.508,0,0,1,12.48,56.055a14.175,14.175,0,0,1,4.091-10.028A13.476,13.476,0,0,1,26.187,42h.024c4.395,0,8.066,1.354,10.615,3.919a13.105,13.105,0,0,1,3.632,9.433c-.044,6.289-4.519,11.019-10.643,11.231A10.885,10.885,0,0,1,18.373,56.151a8.182,8.182,0,0,1,2.4-5.929,8.278,8.278,0,0,1,5.949-2.609c4.371.048,7.743,3.024,7.847,6.92.112,4.067-2.469,6.36-4.954,6.452a5.027,5.027,0,0,1-5.553-5.038,1.2,1.2,0,0,1,2.4-.088,2.684,2.684,0,0,0,3.072,2.733c1.842-.064,2.693-2.4,2.649-4-.072-2.581-2.425-4.555-5.477-4.587A5.913,5.913,0,0,0,22.492,51.9a5.765,5.765,0,0,0-1.722,4.167,8.466,8.466,0,0,0,8.957,8.126,8.493,8.493,0,0,0,8.334-8.837,10.8,10.8,0,0,0-2.937-7.727c-2.086-2.1-5.17-3.2-8.913-3.2h-.02a11.1,11.1,0,0,0-7.911,3.284,11.79,11.79,0,0,0-3.4,8.314,14.1,14.1,0,0,0,4.071,9.944c2.693,2.649,6.508,4.023,11.011,4a1.2,1.2,0,1,1,.024,2.4Z" transform="translate(-7.407 -25.22)"/><rect class="a" width="64" height="64"/></g><g transform="translate(128 128)"><rect class="c" width="64" height="64"/><path class="d" d="M84.788,54.225,57.62,48.7h0a12.785,12.785,0,0,1,.1,24.978l27.316-5.537a7.032,7.032,0,0,0-.264-13.919Z" transform="translate(-34.432 -29.243)"/><path class="h" d="M67.76,80H90.972a7.032,7.032,0,0,1-6.185,6.952L57.62,92.477h0A12.785,12.785,0,0,0,67.76,80Z" transform="translate(-34.432 -48.038)"/><circle class="e" cx="12.785" cy="12.785" r="12.785" transform="translate(7.738 19.177)"/><path class="f" d="M29.983,72.967A13.983,13.983,0,1,1,43.967,58.983,13.983,13.983,0,0,1,29.983,72.967Zm0-25.57A11.586,11.586,0,1,0,41.57,58.983,11.586,11.586,0,0,0,29.983,47.4Z" transform="translate(-9.44 -27.021)"/><path class="f" d="M55.833,73.135a1.2,1.2,0,0,1-.236-2.373L83.017,65.2h.044a5.833,5.833,0,0,0-.216-11.546h-.092L55.586,48.133a1.2,1.2,0,1,1,.475-2.349L83.173,51.3a8.234,8.234,0,0,1,.284,16.285L56.073,73.111A1.219,1.219,0,0,1,55.833,73.135Z" transform="translate(-32.633 -27.477)"/><rect class="a" width="64" height="64"/></g><g transform="translate(64)"><rect class="c" width="64" height="64"/><path class="d" d="M67.6,75.09H56.92V56.34H67.6L85.13,59.6V71.858Z" transform="translate(-34.26 -33.831)"/><path class="j" d="M84.37,49.564V44.39L106.308,50.4v2.329Z" transform="translate(-50.743 -26.655)"/><path class="j" d="M83.66,97v5.086l23.376-6.528V92.83Z" transform="translate(-50.317 -55.742)"/><path class="e" d="M43.312,48.96a.819.819,0,0,0,.8-.819V44.849a.819.819,0,0,0-.8-.8H18.649a.819.819,0,0,0-.819.8v3.292a.819.819,0,0,0,.819.819h9.864V67.866H18.649a.819.819,0,0,0-.819.8V72a.819.819,0,0,0,.819.8H43.312a.819.819,0,0,0,.8-.8V68.7a.819.819,0,0,0-.8-.8H33.447V48.96Z" transform="translate(-10.787 -26.451)"/><path class="f" d="M41.54,72.193H16.878a2.022,2.022,0,0,1-2-2V66.9a2.022,2.022,0,0,1,2-2h8.666V48.357H16.878a2.022,2.022,0,0,1-2-2.018V43.048a2.022,2.022,0,0,1,2-2H41.54a2.022,2.022,0,0,1,2,2V46.34a2.022,2.022,0,0,1-2,2.018H32.875V64.866H41.54a2.022,2.022,0,0,1,2,2V70.2A2.022,2.022,0,0,1,41.54,72.193ZM17.257,69.8h23.9V67.263H31.676a1.2,1.2,0,0,1-1.2-1.2V47.159a1.2,1.2,0,0,1,1.2-1.2h9.485V43.427h-23.9V45.96h9.485a1.2,1.2,0,0,1,1.2,1.2V66.064a1.2,1.2,0,0,1-1.2,1.2H17.257Z" transform="translate(-9.016 -24.65)"/><path class="f" d="M131.11,75.436a1.2,1.2,0,0,1-.747-2.133v-.547h-4.634a1.2,1.2,0,0,1-1.2-1.2V61.189a1.2,1.2,0,0,1,1.2-1.2h4.65v-.567a1.189,1.189,0,0,1,.731-2.133,1.65,1.65,0,0,1,1.65,1.65v1.8a1.65,1.65,0,0,1-1.65,1.646h-4.183v7.971h4.183A1.65,1.65,0,0,1,132.76,72v1.8A1.65,1.65,0,0,1,131.11,75.436ZM131.11,73.039ZM131.11,59.687Z" transform="translate(-74.858 -34.401)"/><line class="e" y1="6.508" x2="23.744" transform="translate(32.524 39.837)"/><path class="f" d="M79.811,105.611a1.2,1.2,0,0,1-.32-2.353l23.748-6.512a1.2,1.2,0,0,1,.635,2.313l-23.748,6.508A1.076,1.076,0,0,1,79.811,105.611Z" transform="translate(-47.287 -58.067)"/><line class="e" x1="23.744" y1="6.508" transform="translate(32.524 17.579)"/><path class="f" d="M103.48,49.885a1.25,1.25,0,0,1-.32-.04L79.413,43.333a1.2,1.2,0,1,1,.635-2.309L103.8,47.532a1.2,1.2,0,0,1-.316,2.353Z" transform="translate(-47.208 -24.599)"/><line class="e" x2="23.744" y2="4.111" transform="translate(32.524 22.597)"/><path class="f" d="M103.471,60.058a1.248,1.248,0,0,1-.208,0L79.519,55.931a1.2,1.2,0,1,1,.4-2.361l23.756,4.111a1.2,1.2,0,0,1-.2,2.377Z" transform="translate(-47.199 -32.151)"/><line class="e" y1="4.515" x2="23.744" transform="translate(32.524 37.1)"/><path class="f" d="M79.626,96.732a1.2,1.2,0,1,1-.22-2.4l23.744-4.511a1.2,1.2,0,1,1,.447,2.353L79.854,96.708A1.1,1.1,0,0,1,79.626,96.732Z" transform="translate(-47.105 -53.919)"/><rect class="a" width="64" height="64"/></g><rect class="c" width="64" height="64"/><path class="d" d="M69.4,73.57l25.634-5.753a.8.8,0,0,0,.691-.4l3.6-6.233a.8.8,0,0,0,0-.8l-3.6-6.233a.8.8,0,0,0-.691-.4L69.4,48l7.591,12.785Z" transform="translate(-41.673 -28.823)"/><path class="h" d="M95.785,86.191,69.4,92.184,77.011,79.4,99.32,79Z" transform="translate(-41.673 -47.438)"/><path class="e" d="M37,48H23.16a.8.8,0,0,0-.7.4L15.549,60.385a.8.8,0,0,0,0,.8L22.457,73.17a.8.8,0,0,0,.691.4H37a.8.8,0,0,0,.691-.4l6.92-11.986a.8.8,0,0,0,0-.8L37.691,48.4A.8.8,0,0,0,37,48Z" transform="translate(-9.273 -28.823)"/><path class="f" d="M35.2,72.967H21.357a2,2,0,0,1-1.73-1l-6.92-11.986a2,2,0,0,1,0-2L19.628,46a2,2,0,0,1,1.73-1H35.2a2,2,0,0,1,1.73,1l6.92,11.986a2,2,0,0,1,0,2l-6.92,11.986A2,2,0,0,1,35.2,72.967Zm-13.608-2.4H34.965l6.692-11.586L34.965,47.4H21.589L14.9,58.983ZM35.2,47.4Z" transform="translate(-7.47 -27.021)"/><path class="f" d="M67.589,72.964a1.2,1.2,0,0,1-.264-2.369l25.634-5.753h0l3.4-5.861-3.384-5.857h0L67.325,47.367a1.2,1.2,0,0,1,.527-2.341L93.4,50.759a2,2,0,0,1,1.57.991l3.6,6.233a2,2,0,0,1,0,2l-3.6,6.233a2,2,0,0,1-1.57.991l-25.53,5.733a1.2,1.2,0,0,1-.28.028ZM93.222,53.148Z" transform="translate(-39.862 -27.019)"/><rect class="a" width="64" height="64"/></g><g transform="translate(256)"><g transform="translate(192 128)"><rect class="c" width="64" height="64"/><path class="d" d="M97.794,66.613a.8.8,0,0,0,.8-.8V50.952a.8.8,0,0,0-.8-.8L72.2,44V72.766Z" transform="translate(-43.106 -26.421)"/><path class="e" d="M39.221,72.565H24.439a2.693,2.693,0,0,1-2.689-2.689V45.689A2.693,2.693,0,0,1,24.439,43H39.221a2.693,2.693,0,0,1,2.689,2.689V69.88a2.689,2.689,0,0,1-2.689,2.685Z" transform="translate(-12.812 -25.82)"/><path class="f" d="M37.426,71.962H22.643a3.887,3.887,0,0,1-3.883-3.887V43.887A3.887,3.887,0,0,1,22.639,40H37.422a3.887,3.887,0,0,1,3.887,3.887V68.079A3.887,3.887,0,0,1,37.426,71.962ZM22.643,42.4a1.49,1.49,0,0,0-1.486,1.49V68.075a1.49,1.49,0,0,0,1.482,1.49H37.422a1.49,1.49,0,0,0,1.486-1.486V43.887a1.49,1.49,0,0,0-1.486-1.49Z" transform="translate(-11.017 -24.019)"/><rect class="g" width="10.5" height="20.528" transform="translate(13.768 21.698)"/><path class="f" d="M41.336,53.707v18.13h-8.1V53.707h8.1m2.4-2.4H30.84V74.235H43.733Z" transform="translate(-18.27 -30.81)"/><path class="f" d="M63.665,71.959a1.2,1.2,0,0,1-.284-2.365l27.435-6.652a1.371,1.371,0,0,1,.284-.032.28.28,0,0,0,.28-.28v-13.3a.28.28,0,0,0-.28-.28,1.342,1.342,0,0,1-.284-.032L63.381,42.362a1.2,1.2,0,1,1,.563-2.333l27.319,6.624a2.685,2.685,0,0,1,2.513,2.673v13.3A2.681,2.681,0,0,1,91.264,65.3L63.945,71.927A1.334,1.334,0,0,1,63.665,71.959Z" transform="translate(-37.256 -24.016)"/><rect class="a" width="64" height="64"/></g><g transform="translate(192)"><rect class="c" width="64" height="64"/><g transform="translate(0 0)"><rect class="a" width="64" height="64"/><path class="d" d="M84.788,54.225,57.62,48.7h0a12.785,12.785,0,0,1,.1,24.978l27.316-5.537a7.032,7.032,0,0,0-.264-13.919Z" transform="translate(-34.27 -29.244)"/><path class="h" d="M67.76,80H90.972a7.032,7.032,0,0,1-6.185,6.952L57.62,92.477h0A12.785,12.785,0,0,0,67.76,80Z" transform="translate(-34.27 -47.969)"/><circle class="e" cx="12.785" cy="12.785" r="12.785" transform="translate(7.329 19.177)"/><path class="f" d="M29.983,72.967A13.983,13.983,0,1,1,43.967,58.983,13.983,13.983,0,0,1,29.983,72.967Zm0-25.57A11.586,11.586,0,1,0,41.57,58.983,11.586,11.586,0,0,0,29.983,47.4Z" transform="translate(-9.85 -27.022)"/><path class="f" d="M55.833,73.135a1.2,1.2,0,0,1-.236-2.373L83.017,65.2h.044a5.833,5.833,0,0,0-.216-11.546h-.092L55.586,48.133a1.2,1.2,0,1,1,.475-2.349L83.173,51.3a8.234,8.234,0,0,1,.284,16.285L56.073,73.111A1.218,1.218,0,0,1,55.833,73.135Z" transform="translate(-32.472 -27.478)"/><path class="g" d="M104.115,76.532l3.488-.8c1.059-2.721-.2-7.431-1.778-8.358L101.53,66.5C103.572,68.8,104.259,72.809,104.115,76.532Z" transform="translate(-60.804 -39.936)"/><path class="f" d="M102.886,76.143a.8.8,0,0,1-.8-.831c.164-4.067-.727-7.591-2.4-9.449a.8.8,0,0,1,.755-1.318l4.295.875a.887.887,0,0,1,.248.1c2.058,1.2,3.244,6.444,2.113,9.337a.8.8,0,0,1-.571.487l-3.488.8A.836.836,0,0,1,102.886,76.143Zm-.823-9.641a17.027,17.027,0,0,1,1.642,7.839l2.054-.459c.679-2.4-.376-6.109-1.47-6.924Z" transform="translate(-59.572 -38.752)"/><path class="f" d="M123.854,76.822a.8.8,0,0,1-.8-.9A9.189,9.189,0,0,0,122,69.734a.8.8,0,0,1,.843-1.2l1.83.4a.8.8,0,0,1,.435.252,6.981,6.981,0,0,1,.939,6.792.8.8,0,0,1-.523.455l-1.458.364A.8.8,0,0,1,123.854,76.822Zm.316-6.281a10.823,10.823,0,0,1,.6,4.2A5.449,5.449,0,0,0,124.17,70.541Z" transform="translate(-72.962 -41.149)"/><path class="g" d="M81.657,62.475,77.05,61.5A12.785,12.785,0,0,1,78.1,74.517l-.675,1.446,7.319-1.442C86.423,71.888,84.122,64.369,81.657,62.475Z" transform="translate(-46.193 -36.932)"/><path class="f" d="M76.207,75.565a.8.8,0,0,1-.727-1.131l.659-1.446a11.986,11.986,0,0,0-.979-12.221.8.8,0,0,1,.8-1.247L80.6,60.5a.8.8,0,0,1,.32.148c2.8,2.165,5.194,10.1,3.3,13.108a.8.8,0,0,1-.519.356l-7.319,1.434A1.031,1.031,0,0,1,76.207,75.565Zm1.251-14.1a13.584,13.584,0,0,1,.14,12.221h0L83,72.612c.907-2.217-.583-8.6-2.929-10.591Z" transform="translate(-44.969 -35.734)"/><path class="g" d="M127.4,77.644l.735-.22a9.017,9.017,0,0,0-.707-4.71l-.751-.084A15.543,15.543,0,0,1,127.4,77.644Z" transform="translate(-75.846 -43.617)"/></g></g><g transform="translate(128)"><rect class="c" width="64" height="64"/><rect class="d" width="25.143" height="25.714" rx="2" transform="translate(49.143 40) rotate(180)"/><path class="f" d="M82.969,60.967H59a2,2,0,0,1-2-2V35a2,2,0,0,1,2-2H82.969a2,2,0,0,1,2,2V58.969A2,2,0,0,1,82.969,60.967ZM59.4,58.57H82.57V35.4H59.4ZM82.969,35.4Z" transform="translate(-34.389 -19.816)"/><rect class="d" width="25.714" height="25.143" rx="2" transform="translate(44.571 44.571) rotate(180)"/><path class="f" d="M70.969,72.967H47a2,2,0,0,1-2-2V47a2,2,0,0,1,2-2H70.969a2,2,0,0,1,2,2V70.969A2,2,0,0,1,70.969,72.967ZM47.4,70.57H70.57V47.4H47.4ZM70.969,47.4Z" transform="translate(-27.183 -27.021)"/><rect class="d" width="25.714" height="25.714" rx="2" transform="translate(40 49.714) rotate(180)"/><path class="f" d="M58.969,84.967H35a2,2,0,0,1-2-2V59a2,2,0,0,1,2-2H58.969a2,2,0,0,1,2,2V82.969A2,2,0,0,1,58.969,84.967ZM35.4,82.57H58.57V59.4H35.4ZM58.969,59.4Z" transform="translate(-19.977 -34.227)"/><rect class="a" width="64" height="64"/></g><g transform="translate(0 128)"><rect class="c" width="64" height="64" transform="translate(0)"/><path class="d" d="M56.92,75.09V56.34L85.13,59.6,85.1,70.991Z" transform="translate(-34.005 -33.831)"/><g class="i" transform="translate(31.776 17.735)"><path class="g" d="M79.1,49.3l1.822-4.91L104.3,51.114l-1.654,2.305Z" transform="translate(-79.1 -44.39)"/></g><g class="i" transform="translate(30.889 37.16)"><path class="g" d="M76.88,96.242l2.709,5.953,23.376-6.528-1.418-2.489-4.459-.168Z" transform="translate(-76.88 -93.01)"/></g><line class="e" y1="6.472" x2="23.656" transform="translate(32.979 39.872)"/><path class="f" d="M80.317,105.649A1.2,1.2,0,0,1,80,103.3l23.652-6.472a1.2,1.2,0,1,1,.635,2.309l-23.656,6.472a1.075,1.075,0,0,1-.316.044Z" transform="translate(-47.339 -58.106)"/><line class="e" x1="23.744" y1="6.508" transform="translate(32.779 17.579)"/><path class="f" d="M103.48,49.885a1.251,1.251,0,0,1-.32-.04L79.413,43.333a1.2,1.2,0,1,1,.635-2.309L103.8,47.532a1.2,1.2,0,0,1-.316,2.353Z" transform="translate(-46.954 -24.599)"/><line class="e" x2="28.182" y2="4.255" transform="translate(22.915 22.509)"/><path class="f" d="M83.359,60.008a1.359,1.359,0,0,1-.18,0L55,55.737a1.2,1.2,0,0,1,.356-2.369l28.186,4.243a1.2,1.2,0,1,1-.18,2.4Z" transform="translate(-32.262 -32.042)"/><line class="e" y1="4.099" x2="28.182" transform="translate(22.915 37.16)"/><path class="f" d="M54.978,96.481a1.2,1.2,0,1,1-.168-2.4l28.17-4.1a1.2,1.2,0,1,1,.344,2.373l-28.17,4.115a1.3,1.3,0,0,1-.176.012Z" transform="translate(-32.067 -54.024)"/><path class="e" d="M39.816,67.836H33.424V48.93h6.392a4.078,4.078,0,0,0,4.311-4.187A.687.687,0,0,0,43.508,44H18.446a.691.691,0,0,0-.619.743,4.081,4.081,0,0,0,4.315,4.187H28.51V67.836H22.141a4.081,4.081,0,0,0-4.315,4.187.691.691,0,0,0,.619.743H43.508a.687.687,0,0,0,.619-.743A4.078,4.078,0,0,0,39.816,67.836Z" transform="translate(-10.529 -26.421)"/><path class="f" d="M41.709,72.163H16.647a1.886,1.886,0,0,1-1.818-1.942,5.271,5.271,0,0,1,5.513-5.386h5.17V48.327h-5.17a5.271,5.271,0,0,1-5.513-5.386A1.886,1.886,0,0,1,16.647,41H41.709a1.886,1.886,0,0,1,1.818,1.942,5.27,5.27,0,0,1-5.509,5.386H32.823V64.836h5.194a5.268,5.268,0,0,1,5.509,5.386A1.886,1.886,0,0,1,41.709,72.163Zm-24.451-2.4H41.1a2.866,2.866,0,0,0-3.08-2.533H31.625a1.2,1.2,0,0,1-1.2-1.2V47.129a1.2,1.2,0,0,1,1.2-1.2h6.392A2.858,2.858,0,0,0,41.1,43.4H17.258a2.87,2.87,0,0,0,3.084,2.533H26.71a1.2,1.2,0,0,1,1.2,1.2V66.034a1.2,1.2,0,0,1-1.2,1.2H20.342A2.87,2.87,0,0,0,17.258,69.766Z" transform="translate(-8.73 -24.62)"/><path class="f" d="M131.2,75.418a1.2,1.2,0,0,1-.911-2,1.059,1.059,0,0,0-1.123-.719h-3.5a1.2,1.2,0,0,1-1.2-1.2V61.115a1.2,1.2,0,0,1,1.2-1.2h3.5a1.059,1.059,0,0,0,1.107-.739,1.2,1.2,0,0,1,.911-1.978,1.574,1.574,0,0,1,1.538,1.6,3.46,3.46,0,0,1-3.556,3.516h-2.305V70.3h2.305a3.46,3.46,0,0,1,3.572,3.5A1.574,1.574,0,0,1,131.2,75.418Zm0-2.4Zm0-13.424Z" transform="translate(-74.562 -34.347)"/><rect class="a" width="64" height="64"/></g><g transform="translate(192 64)"><rect class="c" width="64" height="64"/><g transform="translate(0 0)"><path class="d" d="M56.99,80.5V58.84H67.673L85.2,62.1V74.358Z" transform="translate(-34.092 -35.3)"/><rect class="a" width="64" height="64"/><g class="i" transform="translate(33.787 18.64)"><path class="g" d="M83.73,52.064V46.89l23.216,6.257v2.329Z" transform="translate(-83.73 -46.89)"/></g><line class="e" x1="23.744" y1="6.021" transform="translate(32.968 18.474)"/><path class="f" d="M103.62,51.92a1.075,1.075,0,0,1-.3-.04L79.581,45.859a1.2,1.2,0,0,1,.591-2.325l23.74,6.025a1.2,1.2,0,0,1-.292,2.361Z" transform="translate(-46.908 -26.227)"/><line class="e" x2="23.744" y2="3.724" transform="translate(32.968 23.533)"/><path class="f" d="M103.618,62.165a1.023,1.023,0,0,1-.188,0L79.687,58.417a1.2,1.2,0,0,1,.372-2.369l23.744,3.72a1.2,1.2,0,1,1-.184,2.4Z" transform="translate(-46.906 -33.712)"/><line class="e" y1="6.025" x2="28.566" transform="translate(22.041 39.424)"/><path class="f" d="M53.054,103.845a1.2,1.2,0,0,1-.248-2.373l28.566-6.021a1.2,1.2,0,1,1,.5,2.345L53.3,103.821a1.334,1.334,0,0,1-.248.024Z" transform="translate(-31.008 -57.193)"/><path class="e" d="M43.294,46.5H18.583a.823.823,0,0,0-.823.823v3.3a.823.823,0,0,0,.823.823h9.884v21a.823.823,0,0,0,.823.823h3.3a.823.823,0,0,0,.823-.823v-21h9.884a.823.823,0,0,0,.823-.823v-3.3a.823.823,0,0,0-.823-.823Z" transform="translate(-10.901 -27.923)"/><path class="f" d="M30.785,72.665h-3.3a2.026,2.026,0,0,1-2.022-2.022v-19.8H16.782a2.026,2.026,0,0,1-2.022-2.022v-3.3A2.026,2.026,0,0,1,16.782,43.5H41.492a2.026,2.026,0,0,1,2.022,2.022v3.3a2.026,2.026,0,0,1-2.022,2.022H32.807v19.8a2.026,2.026,0,0,1-2.022,2.022Zm-2.921-2.4h2.545V49.641a1.2,1.2,0,0,1,1.2-1.2h9.509V45.9H17.145v2.545h9.509a1.2,1.2,0,0,1,1.2,1.2ZM41.492,45.9Z" transform="translate(-9.099 -26.121)"/><path class="f" d="M124.573,75.7a1.2,1.2,0,0,1-.747-2.133V62.5a1.2,1.2,0,0,1,1.2-1.2h4.69v-.583a1.2,1.2,0,0,1,.747-2.133,1.65,1.65,0,0,1,1.65,1.65v1.814a1.654,1.654,0,0,1-1.65,1.65h-4.239V74.046A1.654,1.654,0,0,1,124.573,75.7Z" transform="translate(-73.75 -35.176)"/></g></g><g transform="translate(128 64)"><rect class="c" width="64" height="64"/><rect class="a" width="64" height="64"/><path class="d" d="M105.443,69.017a.8.8,0,0,0,.8-.8V55.753a.8.8,0,0,0-.8-.8L83.05,50V73.971Z" transform="translate(-50.025 -30.024)"/><path class="f" d="M74.277,72.946a1.2,1.2,0,0,1-.268-2.365l25.01-5.725V53.069l-25.01-5.725a1.2,1.2,0,1,1,.535-2.333L99.582,50.74a2,2,0,0,1,1.834,2V65.195a2,2,0,0,1-1.834,2L74.544,72.914A1.042,1.042,0,0,1,74.277,72.946Z" transform="translate(-44 -27)"/><path class="e" d="M41.781,73.57H21.593A2.7,2.7,0,0,1,18.9,70.877V50.693A2.7,2.7,0,0,1,21.593,48H41.781a2.693,2.693,0,0,1,2.689,2.693V70.881a2.693,2.693,0,0,1-2.689,2.689Z" transform="translate(-11.505 -28.823)"/><path class="f" d="M39.979,72.967H19.791A3.9,3.9,0,0,1,15.9,69.075V48.891A3.9,3.9,0,0,1,19.791,45H39.979a3.891,3.891,0,0,1,3.887,3.891V69.079a3.891,3.891,0,0,1-3.887,3.887ZM19.791,47.4A1.5,1.5,0,0,0,18.3,48.891V69.075a1.5,1.5,0,0,0,1.494,1.494H39.979a1.49,1.49,0,0,0,1.49-1.49V48.891a1.494,1.494,0,0,0-1.49-1.494Z" transform="translate(-9.703 -27.021)"/><rect class="g" width="16.6" height="16.6" transform="translate(11.882 23.66)"/><path class="f" d="M43.73,58.617V72.824h-14.2V58.617h14.2m2.4-2.4h-19v19h19Z" transform="translate(-16.447 -33.759)"/></g><g transform="translate(64 64)"><rect class="c" width="64" height="64"/><path class="d" d="M84.758,54.225,57.59,48.7h0a12.785,12.785,0,0,1,.1,24.978l27.316-5.537a7.032,7.032,0,0,0-.264-13.919Z" transform="translate(-34.656 -29.243)"/><path class="h" d="M67.76,80H90.972a7.032,7.032,0,0,1-6.185,6.952L57.62,92.477h0A12.785,12.785,0,0,0,67.76,80Z" transform="translate(-34.674 -48.038)"/><path class="f" d="M55.806,73.1a1.2,1.2,0,0,1-.24-2.373l27.419-5.557h.048a5.833,5.833,0,0,0-.22-11.546h-.092L55.558,48.072a1.2,1.2,0,1,1,.479-2.349l27.112,5.517a8.234,8.234,0,0,1,.284,16.285L56.042,73.075A1.2,1.2,0,0,1,55.806,73.1Z" transform="translate(-32.86 -27.441)"/><circle class="e" cx="12.785" cy="12.785" r="12.785" transform="translate(7.508 19.177)"/><path class="f" d="M29.983,72.967A13.983,13.983,0,1,1,43.967,58.983,13.983,13.983,0,0,1,29.983,72.967Zm0-25.57A11.586,11.586,0,1,0,41.57,58.983,11.586,11.586,0,0,0,29.983,47.4Z" transform="translate(-9.682 -27.021)"/><circle class="g" cx="8.302" cy="8.302" r="8.302" transform="translate(11.991 23.66)"/><path class="f" d="M36.709,58.617a7.1,7.1,0,1,1-7.108,7.1,7.1,7.1,0,0,1,7.108-7.1m0-2.4a9.5,9.5,0,1,0,9.493,9.5A9.5,9.5,0,0,0,36.709,56.22Z" transform="translate(-16.408 -33.759)"/><rect class="a" width="64" height="64"/></g><g transform="translate(0 64)"><rect class="c" width="64" height="64"/><path class="d" d="M106.863,69.017a.8.8,0,0,0,.8-.8V55.753a.8.8,0,0,0-.8-.8L84.47,50V73.971Z" transform="translate(-50.716 -30.024)"/><rect class="e" width="25.57" height="25.57" rx="2" transform="translate(8.184 19.177)"/><path class="f" d="M43.439,72.967H19.468a2,2,0,0,1-2-2V47a2,2,0,0,1,2-2H43.439a2,2,0,0,1,2,2V70.969a2,2,0,0,1-2,2Zm-23.572-2.4H43.04V47.4H19.867Z" transform="translate(-10.484 -27.021)"/><path class="f" d="M80.619,72.955a1.2,1.2,0,0,1-.288-2.361l23.081-5.725V53.075L80.328,47.35a1.2,1.2,0,1,1,.579-2.325L104,50.75a2,2,0,0,1,1.818,2V65.2a2,2,0,0,1-1.818,2l-23.1,5.717a1.2,1.2,0,0,1-.288.036Z" transform="translate(-47.665 -27.01)"/><rect class="a" width="64" height="64"/></g><g transform="translate(64 128)"><rect class="c" width="64" height="64"/><path class="d" d="M81.29,94.66l7.223,2.4-35.969,5.705L51.25,97.788Z" transform="translate(-30.688 -56.841)"/><path class="d" d="M83.246,51.541,56.09,46h0A12.785,12.785,0,0,1,66.2,58.5c0,6.125-2.952,7.875-8.674,9.149l25.969-2.189a7.032,7.032,0,0,0-.264-13.919Z" transform="translate(-33.594 -27.622)"/><path class="h" d="M64.415,77.3H87.627a7.036,7.036,0,0,1-6.161,6.968L53.1,86.569C57.918,87.132,62.209,83.824,64.415,77.3Z" transform="translate(-31.798 -46.417)"/><path class="f" d="M52.612,67.255a1.2,1.2,0,1,1-.1-2.4L80.523,62.5a5.833,5.833,0,0,0-.264-11.538h-.092L53.011,45.432a1.2,1.2,0,1,1,.479-2.349L80.6,48.6a8.23,8.23,0,0,1,.26,16.285H80.77L52.716,67.247Z" transform="translate(-30.755 -25.856)"/><path class="f" d="M53.867,102.178h-1.2a1.2,1.2,0,0,1,0-2.4h1.091l29.884-4.9-2.609-.867a1.2,1.2,0,0,1,.755-2.273l7.223,2.4a1.2,1.2,0,0,1-.184,2.321l-34.751,5.705A1.034,1.034,0,0,1,53.867,102.178Z" transform="translate(-30.82 -55.058)"/><path class="d" d="M27.062,57.7a3.844,3.844,0,0,0,4.315,3.883c2.553-.112,3.867-2.8,3.8-5.222-.084-3.048-2.713-5.709-6.664-5.753a7.382,7.382,0,0,0-7.144,7.3,9.636,9.636,0,0,0,10.2,9.281c5.621-.2,9.449-4.535,9.489-10.028C41.105,50.657,36.786,45,27.989,45A12.647,12.647,0,0,0,15.48,57.817c.04,7.116,5.022,15.23,16.3,15.118" transform="translate(-9.208 -27.021)"/><path class="f" d="M29.755,72.364c-5.062,0-9.373-1.6-12.481-4.674A16.508,16.508,0,0,1,12.48,56.055a14.175,14.175,0,0,1,4.091-10.028A13.476,13.476,0,0,1,26.187,42h.024c4.395,0,8.066,1.354,10.615,3.919a13.105,13.105,0,0,1,3.632,9.433c-.044,6.289-4.519,11.019-10.643,11.231A10.885,10.885,0,0,1,18.373,56.151a8.182,8.182,0,0,1,2.4-5.929,8.278,8.278,0,0,1,5.949-2.609c4.371.048,7.743,3.024,7.847,6.92.112,4.067-2.469,6.36-4.954,6.452a5.027,5.027,0,0,1-5.553-5.038,1.2,1.2,0,0,1,2.4-.088,2.684,2.684,0,0,0,3.072,2.733c1.842-.064,2.693-2.4,2.649-4-.072-2.581-2.425-4.555-5.477-4.587A5.913,5.913,0,0,0,22.492,51.9a5.765,5.765,0,0,0-1.722,4.167,8.466,8.466,0,0,0,8.957,8.126,8.493,8.493,0,0,0,8.334-8.837,10.8,10.8,0,0,0-2.937-7.727c-2.086-2.1-5.17-3.2-8.913-3.2h-.02a11.1,11.1,0,0,0-7.911,3.284,11.79,11.79,0,0,0-3.4,8.314,14.1,14.1,0,0,0,4.071,9.944c2.693,2.649,6.508,4.023,11.011,4a1.2,1.2,0,1,1,.024,2.4Z" transform="translate(-7.407 -25.22)"/><rect class="a" width="64" height="64"/></g><g transform="translate(128 128)"><rect class="c" width="64" height="64"/><path class="d" d="M84.788,54.225,57.62,48.7h0a12.785,12.785,0,0,1,.1,24.978l27.316-5.537a7.032,7.032,0,0,0-.264-13.919Z" transform="translate(-34.432 -29.243)"/><path class="h" d="M67.76,80H90.972a7.032,7.032,0,0,1-6.185,6.952L57.62,92.477h0A12.785,12.785,0,0,0,67.76,80Z" transform="translate(-34.432 -48.038)"/><circle class="e" cx="12.785" cy="12.785" r="12.785" transform="translate(7.738 19.177)"/><path class="f" d="M29.983,72.967A13.983,13.983,0,1,1,43.967,58.983,13.983,13.983,0,0,1,29.983,72.967Zm0-25.57A11.586,11.586,0,1,0,41.57,58.983,11.586,11.586,0,0,0,29.983,47.4Z" transform="translate(-9.44 -27.021)"/><path class="f" d="M55.833,73.135a1.2,1.2,0,0,1-.236-2.373L83.017,65.2h.044a5.833,5.833,0,0,0-.216-11.546h-.092L55.586,48.133a1.2,1.2,0,1,1,.475-2.349L83.173,51.3a8.234,8.234,0,0,1,.284,16.285L56.073,73.111A1.219,1.219,0,0,1,55.833,73.135Z" transform="translate(-32.633 -27.477)"/><rect class="a" width="64" height="64"/></g><g transform="translate(64)"><rect class="c" width="64" height="64"/><path class="d" d="M67.6,75.09H56.92V56.34H67.6L85.13,59.6V71.858Z" transform="translate(-34.26 -33.831)"/><path class="j" d="M84.37,49.564V44.39L106.308,50.4v2.329Z" transform="translate(-50.743 -26.655)"/><path class="j" d="M83.66,97v5.086l23.376-6.528V92.83Z" transform="translate(-50.317 -55.742)"/><path class="e" d="M43.312,48.96a.819.819,0,0,0,.8-.819V44.849a.819.819,0,0,0-.8-.8H18.649a.819.819,0,0,0-.819.8v3.292a.819.819,0,0,0,.819.819h9.864V67.866H18.649a.819.819,0,0,0-.819.8V72a.819.819,0,0,0,.819.8H43.312a.819.819,0,0,0,.8-.8V68.7a.819.819,0,0,0-.8-.8H33.447V48.96Z" transform="translate(-10.787 -26.451)"/><path class="f" d="M41.54,72.193H16.878a2.022,2.022,0,0,1-2-2V66.9a2.022,2.022,0,0,1,2-2h8.666V48.357H16.878a2.022,2.022,0,0,1-2-2.018V43.048a2.022,2.022,0,0,1,2-2H41.54a2.022,2.022,0,0,1,2,2V46.34a2.022,2.022,0,0,1-2,2.018H32.875V64.866H41.54a2.022,2.022,0,0,1,2,2V70.2A2.022,2.022,0,0,1,41.54,72.193ZM17.257,69.8h23.9V67.263H31.676a1.2,1.2,0,0,1-1.2-1.2V47.159a1.2,1.2,0,0,1,1.2-1.2h9.485V43.427h-23.9V45.96h9.485a1.2,1.2,0,0,1,1.2,1.2V66.064a1.2,1.2,0,0,1-1.2,1.2H17.257Z" transform="translate(-9.016 -24.65)"/><path class="f" d="M131.11,75.436a1.2,1.2,0,0,1-.747-2.133v-.547h-4.634a1.2,1.2,0,0,1-1.2-1.2V61.189a1.2,1.2,0,0,1,1.2-1.2h4.65v-.567a1.189,1.189,0,0,1,.731-2.133,1.65,1.65,0,0,1,1.65,1.65v1.8a1.65,1.65,0,0,1-1.65,1.646h-4.183v7.971h4.183A1.65,1.65,0,0,1,132.76,72v1.8A1.65,1.65,0,0,1,131.11,75.436ZM131.11,73.039ZM131.11,59.687Z" transform="translate(-74.858 -34.401)"/><line class="e" y1="6.508" x2="23.744" transform="translate(32.524 39.837)"/><path class="f" d="M79.811,105.611a1.2,1.2,0,0,1-.32-2.353l23.748-6.512a1.2,1.2,0,0,1,.635,2.313l-23.748,6.508A1.076,1.076,0,0,1,79.811,105.611Z" transform="translate(-47.287 -58.067)"/><line class="e" x1="23.744" y1="6.508" transform="translate(32.524 17.579)"/><path class="f" d="M103.48,49.885a1.25,1.25,0,0,1-.32-.04L79.413,43.333a1.2,1.2,0,1,1,.635-2.309L103.8,47.532a1.2,1.2,0,0,1-.316,2.353Z" transform="translate(-47.208 -24.599)"/><line class="e" x2="23.744" y2="4.111" transform="translate(32.524 22.597)"/><path class="f" d="M103.471,60.058a1.248,1.248,0,0,1-.208,0L79.519,55.931a1.2,1.2,0,1,1,.4-2.361l23.756,4.111a1.2,1.2,0,0,1-.2,2.377Z" transform="translate(-47.199 -32.151)"/><line class="e" y1="4.515" x2="23.744" transform="translate(32.524 37.1)"/><path class="f" d="M79.626,96.732a1.2,1.2,0,1,1-.22-2.4l23.744-4.511a1.2,1.2,0,1,1,.447,2.353L79.854,96.708A1.1,1.1,0,0,1,79.626,96.732Z" transform="translate(-47.105 -53.919)"/><rect class="a" width="64" height="64"/></g><rect class="c" width="64" height="64"/><path class="d" d="M69.4,73.57l25.634-5.753a.8.8,0,0,0,.691-.4l3.6-6.233a.8.8,0,0,0,0-.8l-3.6-6.233a.8.8,0,0,0-.691-.4L69.4,48l7.591,12.785Z" transform="translate(-41.673 -28.823)"/><path class="h" d="M95.785,86.191,69.4,92.184,77.011,79.4,99.32,79Z" transform="translate(-41.673 -47.438)"/><path class="e" d="M37,48H23.16a.8.8,0,0,0-.7.4L15.549,60.385a.8.8,0,0,0,0,.8L22.457,73.17a.8.8,0,0,0,.691.4H37a.8.8,0,0,0,.691-.4l6.92-11.986a.8.8,0,0,0,0-.8L37.691,48.4A.8.8,0,0,0,37,48Z" transform="translate(-9.273 -28.823)"/><path class="f" d="M35.2,72.967H21.357a2,2,0,0,1-1.73-1l-6.92-11.986a2,2,0,0,1,0-2L19.628,46a2,2,0,0,1,1.73-1H35.2a2,2,0,0,1,1.73,1l6.92,11.986a2,2,0,0,1,0,2l-6.92,11.986A2,2,0,0,1,35.2,72.967Zm-13.608-2.4H34.965l6.692-11.586L34.965,47.4H21.589L14.9,58.983ZM35.2,47.4Z" transform="translate(-7.47 -27.021)"/><path class="f" d="M67.589,72.964a1.2,1.2,0,0,1-.264-2.369l25.634-5.753h0l3.4-5.861-3.384-5.857h0L67.325,47.367a1.2,1.2,0,0,1,.527-2.341L93.4,50.759a2,2,0,0,1,1.57.991l3.6,6.233a2,2,0,0,1,0,2l-3.6,6.233a2,2,0,0,1-1.57.991l-25.53,5.733a1.2,1.2,0,0,1-.28.028ZM93.222,53.148Z" transform="translate(-39.862 -27.019)"/><rect class="a" width="64" height="64"/></g></g></svg>